<svg width="146" height="44" viewBox="0 0 146 44" fill="none" xmlns="http://www.w3.org/2000/svg">
<g opacity="0.5" clip-path="url(#clip0_9_186)">
<mask id="path-1-inside-1_9_186" fill="white">
<path d="M2.78711 44L9.76893 39.6586L18.8968 33.9907C22.515 31.7454 27.0761 31.3822 31.0163 32.8119C34.5472 34.0938 37.6934 36.3884 40.9196 38.3936L46.9672 42.1487L39.2328 42.4718L30.8818 42.8227L35.1324 39.9264L33.9192 39.1662C31.6293 37.7446 29.0319 36.9962 26.388 36.9962C23.744 36.9962 21.1467 37.7446 18.8567 39.1662L11.6746 43.6291L2.78711 44Z"/>
</mask>
<path d="M2.78711 44L9.76893 39.6586L18.8968 33.9907C22.515 31.7454 27.0761 31.3822 31.0163 32.8119C34.5472 34.0938 37.6934 36.3884 40.9196 38.3936L46.9672 42.1487L39.2328 42.4718L30.8818 42.8227L35.1324 39.9264L33.9192 39.1662C31.6293 37.7446 29.0319 36.9962 26.388 36.9962C23.744 36.9962 21.1467 37.7446 18.8567 39.1662L11.6746 43.6291L2.78711 44Z" fill="white"/>
<path d="M2.78711 44L-23.6154 1.53934L-184.983 101.879L4.87185 93.9565L2.78711 44ZM9.76893 39.6586L-16.6071 -2.81844L-16.6203 -2.81024L-16.6335 -2.80203L9.76893 39.6586ZM18.8968 33.9907L-7.46724 -8.49384L-7.47325 -8.49011L-7.47927 -8.48638L18.8968 33.9907ZM31.0163 32.8119L48.0794 -14.1865L48.0708 -14.1897L31.0163 32.8119ZM40.9196 38.3936L14.5252 80.8594L14.5349 80.8654L14.5446 80.8714L40.9196 38.3936ZM46.9672 42.1487L49.0546 92.1051L211.292 85.326L73.3422 -0.329067L46.9672 42.1487ZM39.2328 42.4718L37.1454 -7.48457L37.1338 -7.48408L39.2328 42.4718ZM30.8818 42.8227L2.72722 1.50299L-142.02 100.132L32.9808 92.7786L30.8818 42.8227ZM35.1324 39.9264L63.287 81.2462L126.5 38.1739L61.6817 -2.44258L35.1324 39.9264ZM33.9192 39.1662L60.4685 -3.20283L60.3797 -3.2585L60.2906 -3.3138L33.9192 39.1662ZM26.388 36.9962V86.9962V36.9962ZM18.8567 39.1662L-7.51466 -3.3138L-7.52387 -3.30809L-7.53307 -3.30237L18.8567 39.1662ZM11.6746 43.6291L13.7594 93.5856L26.8965 93.0374L38.0644 86.0977L11.6746 43.6291ZM29.1896 86.4607L36.1714 82.1193L-16.6335 -2.80203L-23.6154 1.53934L29.1896 86.4607ZM36.145 82.1357L45.2729 76.4678L-7.47927 -8.48638L-16.6071 -2.81844L36.145 82.1357ZM45.2609 76.4753C35.1483 82.7507 23.6133 83.3154 13.9618 79.8134L48.0708 -14.1897C30.539 -20.5511 9.88179 -19.2599 -7.46724 -8.49384L45.2609 76.4753ZM13.9532 79.8103C12.5905 79.3156 11.5824 78.8392 10.9947 78.5413C10.4199 78.2499 10.1279 78.0678 10.2449 78.1385C10.2951 78.1687 10.4085 78.2381 10.6167 78.3695C10.8314 78.505 11.0867 78.6682 11.455 78.9052C11.6588 79.0363 11.8045 79.1303 12.0467 79.2862C12.2605 79.4238 12.5016 79.5788 12.7542 79.7406C13.2563 80.062 13.8623 80.4473 14.5252 80.8594L67.3139 -4.0721C66.9302 -4.31062 66.5677 -4.54551 65.5604 -5.19361C64.7263 -5.73018 63.3991 -6.58236 61.9195 -7.47544C59.0138 -9.22927 54.1986 -11.9649 48.0794 -14.1865L13.9532 79.8103ZM14.5446 80.8714L20.5921 84.6264L73.3422 -0.329067L67.2946 -4.0841L14.5446 80.8714ZM44.8797 -7.80775L37.1454 -7.48457L41.3202 92.4282L49.0546 92.1051L44.8797 -7.80775ZM37.1338 -7.48408L28.7828 -7.1332L32.9808 92.7786L41.3318 92.4278L37.1338 -7.48408ZM59.0364 84.1425L63.287 81.2462L6.97784 -1.39331L2.72722 1.50299L59.0364 84.1425ZM61.6817 -2.44258L60.4685 -3.20283L7.36984 81.5352L8.58307 82.2954L61.6817 -2.44258ZM60.2906 -3.3138C50.2451 -9.54997 38.5406 -13.0038 26.388 -13.0038V86.9962C19.5231 86.9962 13.0134 85.0392 7.54776 81.6462L60.2906 -3.3138ZM26.388 -13.0038C14.2353 -13.0038 2.53077 -9.54996 -7.51466 -3.3138L45.2282 81.6462C39.7626 85.0392 33.2528 86.9962 26.388 86.9962V-13.0038ZM-7.53307 -3.30237L-14.7152 1.16058L38.0644 86.0977L45.2466 81.6347L-7.53307 -3.30237ZM9.58988 -6.32739L0.702364 -5.9565L4.87185 93.9565L13.7594 93.5856L9.58988 -6.32739Z" fill="white" mask="url(#path-1-inside-1_9_186)"/>
<mask id="path-3-inside-2_9_186" fill="white">
<path d="M48 40.2357L41.0181 35.899L31.8845 30.228C28.2677 27.9811 25.6953 23.9183 24.8741 19.5277C24.1401 15.5987 24.4148 11.5252 24.4148 7.51159V0L28.5438 7.04221L33.0005 14.6477L28.5438 12.1361V13.6504C28.5437 16.4944 29.2395 19.2884 30.5612 21.7515C31.883 24.2146 33.7841 26.2601 36.0736 27.6825L43.2557 32.1455L48 40.2357Z"/>
</mask>
<path d="M48 40.2357L41.0181 35.899L31.8845 30.228C28.2677 27.9811 25.6953 23.9183 24.8741 19.5277C24.1401 15.5987 24.4148 11.5252 24.4148 7.51159V0L28.5438 7.04221L33.0005 14.6477L28.5438 12.1361V13.6504C28.5437 16.4944 29.2395 19.2884 30.5612 21.7515C31.883 24.2146 33.7841 26.2601 36.0736 27.6825L43.2557 32.1455L48 40.2357Z" fill="white"/>
<path d="M48 40.2357L21.6177 82.709L91.131 14.9432L48 40.2357ZM41.0181 35.899L67.4003 -6.57431L67.3926 -6.57911L41.0181 35.899ZM31.8845 30.228L5.49993 72.6997L5.51006 72.706L31.8845 30.228ZM24.8741 19.5277L-24.2757 28.7092L-24.2736 28.7203L24.8741 19.5277ZM24.4148 0L67.5476 -25.2897L-25.5852 -184.132V0H24.4148ZM28.5438 7.04221L71.6831 -18.2364L71.6766 -18.2474L28.5438 7.04221ZM33.0005 14.6477L8.45252 58.2068L169.739 149.1L76.1397 -10.6309L33.0005 14.6477ZM28.5438 12.1361L53.0918 -31.423L-21.4562 -73.4349V12.1361H28.5438ZM28.5438 13.6504L78.5438 13.6526V13.6504H28.5438ZM36.0736 27.6825L62.4634 -14.786L62.4595 -14.7885L36.0736 27.6825ZM43.2557 32.1455L86.3868 6.85295L80.138 -3.80314L69.6455 -10.3231L43.2557 32.1455ZM74.3822 -2.23756L67.4003 -6.57431L14.6359 78.3723L21.6177 82.709L74.3822 -2.23756ZM67.3926 -6.57911L58.259 -12.2501L5.51006 72.706L14.6437 78.3771L67.3926 -6.57911ZM58.2691 -12.2438C68.0287 -6.18094 72.595 2.70688 74.0218 10.3351L-24.2736 28.7203C-21.2044 45.1297 -11.4932 62.1431 5.49993 72.6997L58.2691 -12.2438ZM74.0239 10.3462C74.228 11.439 74.3093 12.2569 74.3425 12.6846C74.3747 13.0993 74.3691 13.2505 74.366 12.9779C74.3624 12.6675 74.3645 12.2161 74.3784 11.2385C74.3841 10.8316 74.3939 10.1948 74.4008 9.62299C74.4082 9.01086 74.4148 8.28955 74.4148 7.51159H-25.5852C-25.5852 8.06316 -25.5943 8.5998 -25.6116 9.82111C-25.6263 10.8589 -25.647 12.424 -25.6275 14.1249C-25.5889 17.4871 -25.3957 22.7137 -24.2757 28.7092L74.0239 10.3462ZM74.4148 7.51159V0H-25.5852V7.51159H74.4148ZM-18.7179 25.2897L-14.5889 32.3319L71.6766 -18.2474L67.5476 -25.2897L-18.7179 25.2897ZM-14.5954 32.3208L-10.1387 39.9263L76.1397 -10.6309L71.6831 -18.2364L-14.5954 32.3208ZM57.5484 -28.9114L53.0918 -31.423L3.99588 55.6952L8.45252 58.2068L57.5484 -28.9114ZM-21.4562 12.1361V13.6504H78.5438V12.1361H-21.4562ZM-21.4562 13.6483C-21.4566 24.5935 -18.7895 35.5291 -13.4963 45.3932L74.6188 -1.89028C77.2685 3.04766 78.5441 8.39539 78.5438 13.6526L-21.4562 13.6483ZM-13.4963 45.3932C-8.19456 55.2733 -0.322029 63.9348 9.68777 70.1536L62.4595 -14.7885C67.8903 -11.4145 71.9605 -6.8441 74.6188 -1.89028L-13.4963 45.3932ZM9.68383 70.1511L16.866 74.614L69.6455 -10.3231L62.4634 -14.786L9.68383 70.1511ZM0.124693 57.438L4.8689 65.5283L91.131 14.9432L86.3868 6.85295L0.124693 57.438Z" fill="white" mask="url(#path-3-inside-2_9_186)"/>
<mask id="path-5-inside-3_9_186" fill="white">
<path d="M22.1272 0V8.67196C22.1272 12.4526 22.1272 16.2338 22.1272 20.0155C22.1272 24.5093 20.1386 28.9414 17.0168 31.8962C14.2212 34.5432 10.8004 36.3268 7.57415 38.3305L1.52515 42.0871L5.13194 34.7202L9.02487 26.7654L9.23233 32.1732L10.4541 31.4145C12.7437 29.9924 14.645 27.9472 15.967 25.4844C17.289 23.0215 17.9851 20.2278 17.9853 17.3839V8.45805L22.1272 0Z"/>
</mask>
<path d="M22.1272 0V8.67196C22.1272 12.4526 22.1272 16.2338 22.1272 20.0155C22.1272 24.5093 20.1386 28.9414 17.0168 31.8962C14.2212 34.5432 10.8004 36.3268 7.57415 38.3305L1.52515 42.0871L5.13194 34.7202L9.02487 26.7654L9.23233 32.1732L10.4541 31.4145C12.7437 29.9924 14.645 27.9472 15.967 25.4844C17.289 23.0215 17.9851 20.2278 17.9853 17.3839V8.45805L22.1272 0Z" fill="white"/>
<path d="M22.1272 0H72.1272L-22.7777 -21.9898L22.1272 0ZM17.0168 31.8962L-17.3539 -4.41714L-17.3605 -4.41092L17.0168 31.8962ZM7.57415 38.3305L33.9525 80.8062L33.9539 80.8053L7.57415 38.3305ZM1.52515 42.0871L-43.3816 20.1011L-119.873 176.335L27.9035 84.5628L1.52515 42.0871ZM5.13194 34.7202L50.0387 56.7062L50.0424 56.6985L5.13194 34.7202ZM9.02487 26.7654L58.9881 24.8487L-35.8856 4.78702L9.02487 26.7654ZM9.23233 32.1732L-40.7309 34.0899L-37.435 120.007L35.6087 74.6501L9.23233 32.1732ZM10.4541 31.4145L36.8305 73.8914L36.8352 73.8885L10.4541 31.4145ZM17.9853 17.3839L67.9854 17.3888V17.3839H17.9853ZM17.9853 8.45805L-26.9196 -13.5317L-32.0147 -3.12711V8.45805H17.9853ZM-27.8728 0V8.67196H72.1272V0H-27.8728ZM-27.8728 8.67196C-27.8728 8.67935 -27.8728 8.68673 -27.8728 8.69411C-27.8728 8.7015 -27.8728 8.70888 -27.8728 8.71627C-27.8728 8.72365 -27.8728 8.73104 -27.8728 8.73842C-27.8728 8.7458 -27.8728 8.75319 -27.8728 8.76057C-27.8728 8.76796 -27.8728 8.77534 -27.8728 8.78272C-27.8728 8.79011 -27.8728 8.79749 -27.8728 8.80488C-27.8728 8.81226 -27.8728 8.81964 -27.8728 8.82703C-27.8728 8.83441 -27.8728 8.8418 -27.8728 8.84918C-27.8728 8.85657 -27.8728 8.86395 -27.8728 8.87133C-27.8728 8.87872 -27.8728 8.8861 -27.8728 8.89349C-27.8728 8.90087 -27.8728 8.90825 -27.8728 8.91564C-27.8728 8.92302 -27.8728 8.93041 -27.8728 8.93779C-27.8728 8.94518 -27.8728 8.95256 -27.8728 8.95994C-27.8728 8.96733 -27.8728 8.97471 -27.8728 8.9821C-27.8728 8.98948 -27.8728 8.99687 -27.8728 9.00425C-27.8728 9.01163 -27.8728 9.01902 -27.8728 9.0264C-27.8728 9.03379 -27.8728 9.04117 -27.8728 9.04855C-27.8728 9.05594 -27.8728 9.06332 -27.8728 9.07071C-27.8728 9.07809 -27.8728 9.08548 -27.8728 9.09286C-27.8728 9.10024 -27.8728 9.10763 -27.8728 9.11501C-27.8728 9.1224 -27.8728 9.12978 -27.8728 9.13717C-27.8728 9.14455 -27.8728 9.15193 -27.8728 9.15932C-27.8728 9.1667 -27.8728 9.17409 -27.8728 9.18147C-27.8728 9.18886 -27.8728 9.19624 -27.8728 9.20362C-27.8728 9.21101 -27.8728 9.21839 -27.8728 9.22578C-27.8728 9.23316 -27.8728 9.24054 -27.8728 9.24793C-27.8728 9.25531 -27.8728 9.2627 -27.8728 9.27008C-27.8728 9.27747 -27.8728 9.28485 -27.8728 9.29223C-27.8728 9.29962 -27.8728 9.307 -27.8728 9.31439C-27.8728 9.32177 -27.8728 9.32916 -27.8728 9.33654C-27.8728 9.34392 -27.8728 9.35131 -27.8728 9.35869C-27.8728 9.36608 -27.8728 9.37346 -27.8728 9.38085C-27.8728 9.38823 -27.8728 9.39561 -27.8728 9.403C-27.8728 9.41038 -27.8728 9.41777 -27.8728 9.42515C-27.8728 9.43254 -27.8728 9.43992 -27.8728 9.4473C-27.8728 9.45469 -27.8728 9.46207 -27.8728 9.46946C-27.8728 9.47684 -27.8728 9.48423 -27.8728 9.49161C-27.8728 9.49899 -27.8728 9.50638 -27.8728 9.51376C-27.8728 9.52115 -27.8728 9.52853 -27.8728 9.53592C-27.8728 9.5433 -27.8728 9.55068 -27.8728 9.55807C-27.8728 9.56545 -27.8728 9.57284 -27.8728 9.58022C-27.8728 9.58761 -27.8728 9.59499 -27.8728 9.60237C-27.8728 9.60976 -27.8728 9.61714 -27.8728 9.62453C-27.8728 9.63191 -27.8728 9.6393 -27.8728 9.64668C-27.8728 9.65406 -27.8728 9.66145 -27.8728 9.66883C-27.8728 9.67622 -27.8728 9.6836 -27.8728 9.69099C-27.8728 9.69837 -27.8728 9.70575 -27.8728 9.71314C-27.8728 9.72052 -27.8728 9.72791 -27.8728 9.73529C-27.8728 9.74268 -27.8728 9.75006 -27.8728 9.75744C-27.8728 9.76483 -27.8728 9.77221 -27.8728 9.7796C-27.8728 9.78698 -27.8728 9.79437 -27.8728 9.80175C-27.8728 9.80913 -27.8728 9.81652 -27.8728 9.8239C-27.8728 9.83129 -27.8728 9.83867 -27.8728 9.84606C-27.8728 9.85344 -27.8728 9.86083 -27.8728 9.86821C-27.8728 9.87559 -27.8728 9.88298 -27.8728 9.89036C-27.8728 9.89775 -27.8728 9.90513 -27.8728 9.91252C-27.8728 9.9199 -27.8728 9.92728 -27.8728 9.93467C-27.8728 9.94205 -27.8728 9.94944 -27.8728 9.95682C-27.8728 9.96421 -27.8728 9.97159 -27.8728 9.97898C-27.8728 9.98636 -27.8728 9.99374 -27.8728 10.0011C-27.8728 10.0085 -27.8728 10.0159 -27.8728 10.0233C-27.8728 10.0307 -27.8728 10.038 -27.8728 10.0454C-27.8728 10.0528 -27.8728 10.0602 -27.8728 10.0676C-27.8728 10.075 -27.8728 10.0824 -27.8728 10.0897C-27.8728 10.0971 -27.8728 10.1045 -27.8728 10.1119C-27.8728 10.1193 -27.8728 10.1267 -27.8728 10.134C-27.8728 10.1414 -27.8728 10.1488 -27.8728 10.1562C-27.8728 10.1636 -27.8728 10.171 -27.8728 10.1784C-27.8728 10.1857 -27.8728 10.1931 -27.8728 10.2005C-27.8728 10.2079 -27.8728 10.2153 -27.8728 10.2227C-27.8728 10.23 -27.8728 10.2374 -27.8728 10.2448C-27.8728 10.2522 -27.8728 10.2596 -27.8728 10.267C-27.8728 10.2744 -27.8728 10.2817 -27.8728 10.2891C-27.8728 10.2965 -27.8728 10.3039 -27.8728 10.3113C-27.8728 10.3187 -27.8728 10.326 -27.8728 10.3334C-27.8728 10.3408 -27.8728 10.3482 -27.8728 10.3556C-27.8728 10.363 -27.8728 10.3703 -27.8728 10.3777C-27.8728 10.3851 -27.8728 10.3925 -27.8728 10.3999C-27.8728 10.4073 -27.8728 10.4147 -27.8728 10.422C-27.8728 10.4294 -27.8728 10.4368 -27.8728 10.4442C-27.8728 10.4516 -27.8728 10.459 -27.8728 10.4663C-27.8728 10.4737 -27.8728 10.4811 -27.8728 10.4885C-27.8728 10.4959 -27.8728 10.5033 -27.8728 10.5107C-27.8728 10.518 -27.8728 10.5254 -27.8728 10.5328C-27.8728 10.5402 -27.8728 10.5476 -27.8728 10.555C-27.8728 10.5623 -27.8728 10.5697 -27.8728 10.5771C-27.8728 10.5845 -27.8728 10.5919 -27.8728 10.5993C-27.8728 10.6067 -27.8728 10.614 -27.8728 10.6214C-27.8728 10.6288 -27.8728 10.6362 -27.8728 10.6436C-27.8728 10.651 -27.8728 10.6583 -27.8728 10.6657C-27.8728 10.6731 -27.8728 10.6805 -27.8728 10.6879C-27.8728 10.6953 -27.8728 10.7026 -27.8728 10.71C-27.8728 10.7174 -27.8728 10.7248 -27.8728 10.7322C-27.8728 10.7396 -27.8728 10.747 -27.8728 10.7543C-27.8728 10.7617 -27.8728 10.7691 -27.8728 10.7765C-27.8728 10.7839 -27.8728 10.7913 -27.8728 10.7986C-27.8728 10.806 -27.8728 10.8134 -27.8728 10.8208C-27.8728 10.8282 -27.8728 10.8356 -27.8728 10.843C-27.8728 10.8503 -27.8728 10.8577 -27.8728 10.8651C-27.8728 10.8725 -27.8728 10.8799 -27.8728 10.8873C-27.8728 10.8946 -27.8728 10.902 -27.8728 10.9094C-27.8728 10.9168 -27.8728 10.9242 -27.8728 10.9316C-27.8728 10.939 -27.8728 10.9463 -27.8728 10.9537C-27.8728 10.9611 -27.8728 10.9685 -27.8728 10.9759C-27.8728 10.9833 -27.8728 10.9906 -27.8728 10.998C-27.8728 11.0054 -27.8728 11.0128 -27.8728 11.0202C-27.8728 11.0276 -27.8728 11.035 -27.8728 11.0423C-27.8728 11.0497 -27.8728 11.0571 -27.8728 11.0645C-27.8728 11.0719 -27.8728 11.0793 -27.8728 11.0866C-27.8728 11.094 -27.8728 11.1014 -27.8728 11.1088C-27.8728 11.1162 -27.8728 11.1236 -27.8728 11.131C-27.8728 11.1383 -27.8728 11.1457 -27.8728 11.1531C-27.8728 11.1605 -27.8728 11.1679 -27.8728 11.1753C-27.8728 11.1826 -27.8728 11.19 -27.8728 11.1974C-27.8728 11.2048 -27.8728 11.2122 -27.8728 11.2196C-27.8728 11.227 -27.8728 11.2343 -27.8728 11.2417C-27.8728 11.2491 -27.8728 11.2565 -27.8728 11.2639C-27.8728 11.2713 -27.8728 11.2786 -27.8728 11.286C-27.8728 11.2934 -27.8728 11.3008 -27.8728 11.3082C-27.8728 11.3156 -27.8728 11.323 -27.8728 11.3303C-27.8728 11.3377 -27.8728 11.3451 -27.8728 11.3525C-27.8728 11.3599 -27.8728 11.3673 -27.8728 11.3746C-27.8728 11.382 -27.8728 11.3894 -27.8728 11.3968C-27.8728 11.4042 -27.8728 11.4116 -27.8728 11.419C-27.8728 11.4263 -27.8728 11.4337 -27.8728 11.4411C-27.8728 11.4485 -27.8728 11.4559 -27.8728 11.4633C-27.8728 11.4706 -27.8728 11.478 -27.8728 11.4854C-27.8728 11.4928 -27.8728 11.5002 -27.8728 11.5076C-27.8728 11.515 -27.8728 11.5223 -27.8728 11.5297C-27.8728 11.5371 -27.8728 11.5445 -27.8728 11.5519C-27.8728 11.5593 -27.8728 11.5666 -27.8728 11.574C-27.8728 11.5814 -27.8728 11.5888 -27.8728 11.5962C-27.8728 11.6036 -27.8728 11.611 -27.8728 11.6183C-27.8728 11.6257 -27.8728 11.6331 -27.8728 11.6405C-27.8728 11.6479 -27.8728 11.6553 -27.8728 11.6626C-27.8728 11.67 -27.8728 11.6774 -27.8728 11.6848C-27.8728 11.6922 -27.8728 11.6996 -27.8728 11.707C-27.8728 11.7143 -27.8728 11.7217 -27.8728 11.7291C-27.8728 11.7365 -27.8728 11.7439 -27.8728 11.7513C-27.8728 11.7586 -27.8728 11.766 -27.8728 11.7734C-27.8728 11.7808 -27.8728 11.7882 -27.8728 11.7956C-27.8728 11.803 -27.8728 11.8103 -27.8728 11.8177C-27.8728 11.8251 -27.8728 11.8325 -27.8728 11.8399C-27.8728 11.8473 -27.8728 11.8546 -27.8728 11.862C-27.8728 11.8694 -27.8728 11.8768 -27.8728 11.8842C-27.8728 11.8916 -27.8728 11.899 -27.8728 11.9063C-27.8728 11.9137 -27.8728 11.9211 -27.8728 11.9285C-27.8728 11.9359 -27.8728 11.9433 -27.8728 11.9506C-27.8728 11.958 -27.8728 11.9654 -27.8728 11.9728C-27.8728 11.9802 -27.8728 11.9876 -27.8728 11.995C-27.8728 12.0023 -27.8728 12.0097 -27.8728 12.0171C-27.8728 12.0245 -27.8728 12.0319 -27.8728 12.0393C-27.8728 12.0466 -27.8728 12.054 -27.8728 12.0614C-27.8728 12.0688 -27.8728 12.0762 -27.8728 12.0836C-27.8728 12.091 -27.8728 12.0983 -27.8728 12.1057C-27.8728 12.1131 -27.8728 12.1205 -27.8728 12.1279C-27.8728 12.1353 -27.8728 12.1427 -27.8728 12.15C-27.8728 12.1574 -27.8728 12.1648 -27.8728 12.1722C-27.8728 12.1796 -27.8728 12.187 -27.8728 12.1943C-27.8728 12.2017 -27.8728 12.2091 -27.8728 12.2165C-27.8728 12.2239 -27.8728 12.2313 -27.8728 12.2387C-27.8728 12.246 -27.8728 12.2534 -27.8728 12.2608C-27.8728 12.2682 -27.8728 12.2756 -27.8728 12.283C-27.8728 12.2903 -27.8728 12.2977 -27.8728 12.3051C-27.8728 12.3125 -27.8728 12.3199 -27.8728 12.3273C-27.8728 12.3347 -27.8728 12.342 -27.8728 12.3494C-27.8728 12.3568 -27.8728 12.3642 -27.8728 12.3716C-27.8728 12.379 -27.8728 12.3863 -27.8728 12.3937C-27.8728 12.4011 -27.8728 12.4085 -27.8728 12.4159C-27.8728 12.4233 -27.8728 12.4307 -27.8728 12.438C-27.8728 12.4454 -27.8728 12.4528 -27.8728 12.4602C-27.8728 12.4676 -27.8728 12.475 -27.8728 12.4824C-27.8728 12.4897 -27.8728 12.4971 -27.8728 12.5045C-27.8728 12.5119 -27.8728 12.5193 -27.8728 12.5267C-27.8728 12.534 -27.8728 12.5414 -27.8728 12.5488C-27.8728 12.5562 -27.8728 12.5636 -27.8728 12.571C-27.8728 12.5784 -27.8728 12.5857 -27.8728 12.5931C-27.8728 12.6005 -27.8728 12.6079 -27.8728 12.6153C-27.8728 12.6227 -27.8728 12.63 -27.8728 12.6374C-27.8728 12.6448 -27.8728 12.6522 -27.8728 12.6596C-27.8728 12.667 -27.8728 12.6744 -27.8728 12.6817C-27.8728 12.6891 -27.8728 12.6965 -27.8728 12.7039C-27.8728 12.7113 -27.8728 12.7187 -27.8728 12.7261C-27.8728 12.7334 -27.8728 12.7408 -27.8728 12.7482C-27.8728 12.7556 -27.8728 12.763 -27.8728 12.7704C-27.8728 12.7777 -27.8728 12.7851 -27.8728 12.7925C-27.8728 12.7999 -27.8728 12.8073 -27.8728 12.8147C-27.8728 12.8221 -27.8728 12.8294 -27.8728 12.8368C-27.8728 12.8442 -27.8728 12.8516 -27.8728 12.859C-27.8728 12.8664 -27.8728 12.8737 -27.8728 12.8811C-27.8728 12.8885 -27.8728 12.8959 -27.8728 12.9033C-27.8728 12.9107 -27.8728 12.9181 -27.8728 12.9254C-27.8728 12.9328 -27.8728 12.9402 -27.8728 12.9476C-27.8728 12.955 -27.8728 12.9624 -27.8728 12.9698C-27.8728 12.9771 -27.8728 12.9845 -27.8728 12.9919C-27.8728 12.9993 -27.8728 13.0067 -27.8728 13.0141C-27.8728 13.0214 -27.8728 13.0288 -27.8728 13.0362C-27.8728 13.0436 -27.8728 13.051 -27.8728 13.0584C-27.8728 13.0658 -27.8728 13.0731 -27.8728 13.0805C-27.8728 13.0879 -27.8728 13.0953 -27.8728 13.1027C-27.8728 13.1101 -27.8728 13.1174 -27.8728 13.1248C-27.8728 13.1322 -27.8728 13.1396 -27.8728 13.147C-27.8728 13.1544 -27.8728 13.1618 -27.8728 13.1691C-27.8728 13.1765 -27.8728 13.1839 -27.8728 13.1913C-27.8728 13.1987 -27.8728 13.2061 -27.8728 13.2135C-27.8728 13.2208 -27.8728 13.2282 -27.8728 13.2356C-27.8728 13.243 -27.8728 13.2504 -27.8728 13.2578C-27.8728 13.2651 -27.8728 13.2725 -27.8728 13.2799C-27.8728 13.2873 -27.8728 13.2947 -27.8728 13.3021C-27.8728 13.3095 -27.8728 13.3168 -27.8728 13.3242C-27.8728 13.3316 -27.8728 13.339 -27.8728 13.3464C-27.8728 13.3538 -27.8728 13.3612 -27.8728 13.3685C-27.8728 13.3759 -27.8728 13.3833 -27.8728 13.3907C-27.8728 13.3981 -27.8728 13.4055 -27.8728 13.4128C-27.8728 13.4202 -27.8728 13.4276 -27.8728 13.435C-27.8728 13.4424 -27.8728 13.4498 -27.8728 13.4572C-27.8728 13.4645 -27.8728 13.4719 -27.8728 13.4793C-27.8728 13.4867 -27.8728 13.4941 -27.8728 13.5015C-27.8728 13.5089 -27.8728 13.5162 -27.8728 13.5236C-27.8728 13.531 -27.8728 13.5384 -27.8728 13.5458C-27.8728 13.5532 -27.8728 13.5605 -27.8728 13.5679C-27.8728 13.5753 -27.8728 13.5827 -27.8728 13.5901C-27.8728 13.5975 -27.8728 13.6049 -27.8728 13.6122C-27.8728 13.6196 -27.8728 13.627 -27.8728 13.6344C-27.8728 13.6418 -27.8728 13.6492 -27.8728 13.6566C-27.8728 13.6639 -27.8728 13.6713 -27.8728 13.6787C-27.8728 13.6861 -27.8728 13.6935 -27.8728 13.7009C-27.8728 13.7082 -27.8728 13.7156 -27.8728 13.723C-27.8728 13.7304 -27.8728 13.7378 -27.8728 13.7452C-27.8728 13.7526 -27.8728 13.7599 -27.8728 13.7673C-27.8728 13.7747 -27.8728 13.7821 -27.8728 13.7895C-27.8728 13.7969 -27.8728 13.8043 -27.8728 13.8116C-27.8728 13.819 -27.8728 13.8264 -27.8728 13.8338C-27.8728 13.8412 -27.8728 13.8486 -27.8728 13.8559C-27.8728 13.8633 -27.8728 13.8707 -27.8728 13.8781C-27.8728 13.8855 -27.8728 13.8929 -27.8728 13.9003C-27.8728 13.9076 -27.8728 13.915 -27.8728 13.9224C-27.8728 13.9298 -27.8728 13.9372 -27.8728 13.9446C-27.8728 13.952 -27.8728 13.9593 -27.8728 13.9667C-27.8728 13.9741 -27.8728 13.9815 -27.8728 13.9889C-27.8728 13.9963 -27.8728 14.0036 -27.8728 14.011C-27.8728 14.0184 -27.8728 14.0258 -27.8728 14.0332C-27.8728 14.0406 -27.8728 14.048 -27.8728 14.0553C-27.8728 14.0627 -27.8728 14.0701 -27.8728 14.0775C-27.8728 14.0849 -27.8728 14.0923 -27.8728 14.0997C-27.8728 14.107 -27.8728 14.1144 -27.8728 14.1218C-27.8728 14.1292 -27.8728 14.1366 -27.8728 14.144C-27.8728 14.1514 -27.8728 14.1587 -27.8728 14.1661C-27.8728 14.1735 -27.8728 14.1809 -27.8728 14.1883C-27.8728 14.1957 -27.8728 14.203 -27.8728 14.2104C-27.8728 14.2178 -27.8728 14.2252 -27.8728 14.2326C-27.8728 14.24 -27.8728 14.2474 -27.8728 14.2547C-27.8728 14.2621 -27.8728 14.2695 -27.8728 14.2769C-27.8728 14.2843 -27.8728 14.2917 -27.8728 14.2991C-27.8728 14.3064 -27.8728 14.3138 -27.8728 14.3212C-27.8728 14.3286 -27.8728 14.336 -27.8728 14.3434C-27.8728 14.3507 -27.8728 14.3581 -27.8728 14.3655C-27.8728 14.3729 -27.8728 14.3803 -27.8728 14.3877C-27.8728 14.3951 -27.8728 14.4024 -27.8728 14.4098C-27.8728 14.4172 -27.8728 14.4246 -27.8728 14.432C-27.8728 14.4394 -27.8728 14.4468 -27.8728 14.4541C-27.8728 14.4615 -27.8728 14.4689 -27.8728 14.4763C-27.8728 14.4837 -27.8728 14.4911 -27.8728 14.4985C-27.8728 14.5058 -27.8728 14.5132 -27.8728 14.5206C-27.8728 14.528 -27.8728 14.5354 -27.8728 14.5428C-27.8728 14.5501 -27.8728 14.5575 -27.8728 14.5649C-27.8728 14.5723 -27.8728 14.5797 -27.8728 14.5871C-27.8728 14.5945 -27.8728 14.6018 -27.8728 14.6092C-27.8728 14.6166 -27.8728 14.624 -27.8728 14.6314C-27.8728 14.6388 -27.8728 14.6462 -27.8728 14.6535C-27.8728 14.6609 -27.8728 14.6683 -27.8728 14.6757C-27.8728 14.6831 -27.8728 14.6905 -27.8728 14.6979C-27.8728 14.7052 -27.8728 14.7126 -27.8728 14.72C-27.8728 14.7274 -27.8728 14.7348 -27.8728 14.7422C-27.8728 14.7495 -27.8728 14.7569 -27.8728 14.7643C-27.8728 14.7717 -27.8728 14.7791 -27.8728 14.7865C-27.8728 14.7939 -27.8728 14.8012 -27.8728 14.8086C-27.8728 14.816 -27.8728 14.8234 -27.8728 14.8308C-27.8728 14.8382 -27.8728 14.8456 -27.8728 14.8529C-27.8728 14.8603 -27.8728 14.8677 -27.8728 14.8751C-27.8728 14.8825 -27.8728 14.8899 -27.8728 14.8973C-27.8728 14.9046 -27.8728 14.912 -27.8728 14.9194C-27.8728 14.9268 -27.8728 14.9342 -27.8728 14.9416C-27.8728 14.949 -27.8728 14.9563 -27.8728 14.9637C-27.8728 14.9711 -27.8728 14.9785 -27.8728 14.9859C-27.8728 14.9933 -27.8728 15.0006 -27.8728 15.008C-27.8728 15.0154 -27.8728 15.0228 -27.8728 15.0302C-27.8728 15.0376 -27.8728 15.045 -27.8728 15.0523C-27.8728 15.0597 -27.8728 15.0671 -27.8728 15.0745C-27.8728 15.0819 -27.8728 15.0893 -27.8728 15.0967C-27.8728 15.104 -27.8728 15.1114 -27.8728 15.1188C-27.8728 15.1262 -27.8728 15.1336 -27.8728 15.141C-27.8728 15.1484 -27.8728 15.1557 -27.8728 15.1631C-27.8728 15.1705 -27.8728 15.1779 -27.8728 15.1853C-27.8728 15.1927 -27.8728 15.2001 -27.8728 15.2074C-27.8728 15.2148 -27.8728 15.2222 -27.8728 15.2296C-27.8728 15.237 -27.8728 15.2444 -27.8728 15.2517C-27.8728 15.2591 -27.8728 15.2665 -27.8728 15.2739C-27.8728 15.2813 -27.8728 15.2887 -27.8728 15.2961C-27.8728 15.3034 -27.8728 15.3108 -27.8728 15.3182C-27.8728 15.3256 -27.8728 15.333 -27.8728 15.3404C-27.8728 15.3478 -27.8728 15.3551 -27.8728 15.3625C-27.8728 15.3699 -27.8728 15.3773 -27.8728 15.3847C-27.8728 15.3921 -27.8728 15.3995 -27.8728 15.4068C-27.8728 15.4142 -27.8728 15.4216 -27.8728 15.429C-27.8728 15.4364 -27.8728 15.4438 -27.8728 15.4512C-27.8728 15.4585 -27.8728 15.4659 -27.8728 15.4733C-27.8728 15.4807 -27.8728 15.4881 -27.8728 15.4955C-27.8728 15.5028 -27.8728 15.5102 -27.8728 15.5176C-27.8728 15.525 -27.8728 15.5324 -27.8728 15.5398C-27.8728 15.5472 -27.8728 15.5545 -27.8728 15.5619C-27.8728 15.5693 -27.8728 15.5767 -27.8728 15.5841C-27.8728 15.5915 -27.8728 15.5989 -27.8728 15.6062C-27.8728 15.6136 -27.8728 15.621 -27.8728 15.6284C-27.8728 15.6358 -27.8728 15.6432 -27.8728 15.6506C-27.8728 15.6579 -27.8728 15.6653 -27.8728 15.6727C-27.8728 15.6801 -27.8728 15.6875 -27.8728 15.6949C-27.8728 15.7023 -27.8728 15.7096 -27.8728 15.717C-27.8728 15.7244 -27.8728 15.7318 -27.8728 15.7392C-27.8728 15.7466 -27.8728 15.754 -27.8728 15.7613C-27.8728 15.7687 -27.8728 15.7761 -27.8728 15.7835C-27.8728 15.7909 -27.8728 15.7983 -27.8728 15.8056C-27.8728 15.813 -27.8728 15.8204 -27.8728 15.8278C-27.8728 15.8352 -27.8728 15.8426 -27.8728 15.85C-27.8728 15.8573 -27.8728 15.8647 -27.8728 15.8721C-27.8728 15.8795 -27.8728 15.8869 -27.8728 15.8943C-27.8728 15.9017 -27.8728 15.909 -27.8728 15.9164C-27.8728 15.9238 -27.8728 15.9312 -27.8728 15.9386C-27.8728 15.946 -27.8728 15.9534 -27.8728 15.9607C-27.8728 15.9681 -27.8728 15.9755 -27.8728 15.9829C-27.8728 15.9903 -27.8728 15.9977 -27.8728 16.0051C-27.8728 16.0124 -27.8728 16.0198 -27.8728 16.0272C-27.8728 16.0346 -27.8728 16.042 -27.8728 16.0494C-27.8728 16.0568 -27.8728 16.0641 -27.8728 16.0715C-27.8728 16.0789 -27.8728 16.0863 -27.8728 16.0937C-27.8728 16.1011 -27.8728 16.1085 -27.8728 16.1158C-27.8728 16.1232 -27.8728 16.1306 -27.8728 16.138C-27.8728 16.1454 -27.8728 16.1528 -27.8728 16.1601C-27.8728 16.1675 -27.8728 16.1749 -27.8728 16.1823C-27.8728 16.1897 -27.8728 16.1971 -27.8728 16.2045C-27.8728 16.2118 -27.8728 16.2192 -27.8728 16.2266C-27.8728 16.234 -27.8728 16.2414 -27.8728 16.2488C-27.8728 16.2562 -27.8728 16.2635 -27.8728 16.2709C-27.8728 16.2783 -27.8728 16.2857 -27.8728 16.2931C-27.8728 16.3005 -27.8728 16.3079 -27.8728 16.3152C-27.8728 16.3226 -27.8728 16.33 -27.8728 16.3374C-27.8728 16.3448 -27.8728 16.3522 -27.8728 16.3596C-27.8728 16.3669 -27.8728 16.3743 -27.8728 16.3817C-27.8728 16.3891 -27.8728 16.3965 -27.8728 16.4039C-27.8728 16.4113 -27.8728 16.4186 -27.8728 16.426C-27.8728 16.4334 -27.8728 16.4408 -27.8728 16.4482C-27.8728 16.4556 -27.8728 16.463 -27.8728 16.4703C-27.8728 16.4777 -27.8728 16.4851 -27.8728 16.4925C-27.8728 16.4999 -27.8728 16.5073 -27.8728 16.5147C-27.8728 16.522 -27.8728 16.5294 -27.8728 16.5368C-27.8728 16.5442 -27.8728 16.5516 -27.8728 16.559C-27.8728 16.5664 -27.8728 16.5737 -27.8728 16.5811C-27.8728 16.5885 -27.8728 16.5959 -27.8728 16.6033C-27.8728 16.6107 -27.8728 16.618 -27.8728 16.6254C-27.8728 16.6328 -27.8728 16.6402 -27.8728 16.6476C-27.8728 16.655 -27.8728 16.6624 -27.8728 16.6697C-27.8728 16.6771 -27.8728 16.6845 -27.8728 16.6919C-27.8728 16.6993 -27.8728 16.7067 -27.8728 16.7141C-27.8728 16.7214 -27.8728 16.7288 -27.8728 16.7362C-27.8728 16.7436 -27.8728 16.751 -27.8728 16.7584C-27.8728 16.7658 -27.8728 16.7731 -27.8728 16.7805C-27.8728 16.7879 -27.8728 16.7953 -27.8728 16.8027C-27.8728 16.8101 -27.8728 16.8175 -27.8728 16.8248C-27.8728 16.8322 -27.8728 16.8396 -27.8728 16.847C-27.8728 16.8544 -27.8728 16.8618 -27.8728 16.8692C-27.8728 16.8765 -27.8728 16.8839 -27.8728 16.8913C-27.8728 16.8987 -27.8728 16.9061 -27.8728 16.9135C-27.8728 16.9209 -27.8728 16.9282 -27.8728 16.9356C-27.8728 16.943 -27.8728 16.9504 -27.8728 16.9578C-27.8728 16.9652 -27.8728 16.9726 -27.8728 16.9799C-27.8728 16.9873 -27.8728 16.9947 -27.8728 17.0021C-27.8728 17.0095 -27.8728 17.0169 -27.8728 17.0243C-27.8728 17.0316 -27.8728 17.039 -27.8728 17.0464C-27.8728 17.0538 -27.8728 17.0612 -27.8728 17.0686C-27.8728 17.076 -27.8728 17.0833 -27.8728 17.0907C-27.8728 17.0981 -27.8728 17.1055 -27.8728 17.1129C-27.8728 17.1203 -27.8728 17.1277 -27.8728 17.135C-27.8728 17.1424 -27.8728 17.1498 -27.8728 17.1572C-27.8728 17.1646 -27.8728 17.172 -27.8728 17.1794C-27.8728 17.1867 -27.8728 17.1941 -27.8728 17.2015C-27.8728 17.2089 -27.8728 17.2163 -27.8728 17.2237C-27.8728 17.2311 -27.8728 17.2384 -27.8728 17.2458C-27.8728 17.2532 -27.8728 17.2606 -27.8728 17.268C-27.8728 17.2754 -27.8728 17.2828 -27.8728 17.2901C-27.8728 17.2975 -27.8728 17.3049 -27.8728 17.3123C-27.8728 17.3197 -27.8728 17.3271 -27.8728 17.3345C-27.8728 17.3418 -27.8728 17.3492 -27.8728 17.3566C-27.8728 17.364 -27.8728 17.3714 -27.8728 17.3788C-27.8728 17.3862 -27.8728 17.3935 -27.8728 17.4009C-27.8728 17.4083 -27.8728 17.4157 -27.8728 17.4231C-27.8728 17.4305 -27.8728 17.4379 -27.8728 17.4452C-27.8728 17.4526 -27.8728 17.46 -27.8728 17.4674C-27.8728 17.4748 -27.8728 17.4822 -27.8728 17.4896C-27.8728 17.4969 -27.8728 17.5043 -27.8728 17.5117C-27.8728 17.5191 -27.8728 17.5265 -27.8728 17.5339C-27.8728 17.5413 -27.8728 17.5486 -27.8728 17.556C-27.8728 17.5634 -27.8728 17.5708 -27.8728 17.5782C-27.8728 17.5856 -27.8728 17.593 -27.8728 17.6003C-27.8728 17.6077 -27.8728 17.6151 -27.8728 17.6225C-27.8728 17.6299 -27.8728 17.6373 -27.8728 17.6447C-27.8728 17.652 -27.8728 17.6594 -27.8728 17.6668C-27.8728 17.6742 -27.8728 17.6816 -27.8728 17.689C-27.8728 17.6964 -27.8728 17.7037 -27.8728 17.7111C-27.8728 17.7185 -27.8728 17.7259 -27.8728 17.7333C-27.8728 17.7407 -27.8728 17.7481 -27.8728 17.7554C-27.8728 17.7628 -27.8728 17.7702 -27.8728 17.7776C-27.8728 17.785 -27.8728 17.7924 -27.8728 17.7998C-27.8728 17.8071 -27.8728 17.8145 -27.8728 17.8219C-27.8728 17.8293 -27.8728 17.8367 -27.8728 17.8441C-27.8728 17.8515 -27.8728 17.8588 -27.8728 17.8662C-27.8728 17.8736 -27.8728 17.881 -27.8728 17.8884C-27.8728 17.8958 -27.8728 17.9032 -27.8728 17.9105C-27.8728 17.9179 -27.8728 17.9253 -27.8728 17.9327C-27.8728 17.9401 -27.8728 17.9475 -27.8728 17.9549C-27.8728 17.9622 -27.8728 17.9696 -27.8728 17.977C-27.8728 17.9844 -27.8728 17.9918 -27.8728 17.9992C-27.8728 18.0066 -27.8728 18.0139 -27.8728 18.0213C-27.8728 18.0287 -27.8728 18.0361 -27.8728 18.0435C-27.8728 18.0509 -27.8728 18.0583 -27.8728 18.0656C-27.8728 18.073 -27.8728 18.0804 -27.8728 18.0878C-27.8728 18.0952 -27.8728 18.1026 -27.8728 18.11C-27.8728 18.1173 -27.8728 18.1247 -27.8728 18.1321C-27.8728 18.1395 -27.8728 18.1469 -27.8728 18.1543C-27.8728 18.1617 -27.8728 18.169 -27.8728 18.1764C-27.8728 18.1838 -27.8728 18.1912 -27.8728 18.1986C-27.8728 18.206 -27.8728 18.2134 -27.8728 18.2207C-27.8728 18.2281 -27.8728 18.2355 -27.8728 18.2429C-27.8728 18.2503 -27.8728 18.2577 -27.8728 18.2651C-27.8728 18.2724 -27.8728 18.2798 -27.8728 18.2872C-27.8728 18.2946 -27.8728 18.302 -27.8728 18.3094C-27.8728 18.3168 -27.8728 18.3241 -27.8728 18.3315C-27.8728 18.3389 -27.8728 18.3463 -27.8728 18.3537C-27.8728 18.3611 -27.8728 18.3685 -27.8728 18.3758C-27.8728 18.3832 -27.8728 18.3906 -27.8728 18.398C-27.8728 18.4054 -27.8728 18.4128 -27.8728 18.4202C-27.8728 18.4275 -27.8728 18.4349 -27.8728 18.4423C-27.8728 18.4497 -27.8728 18.4571 -27.8728 18.4645C-27.8728 18.4719 -27.8728 18.4792 -27.8728 18.4866C-27.8728 18.494 -27.8728 18.5014 -27.8728 18.5088C-27.8728 18.5162 -27.8728 18.5236 -27.8728 18.5309C-27.8728 18.5383 -27.8728 18.5457 -27.8728 18.5531C-27.8728 18.5605 -27.8728 18.5679 -27.8728 18.5753C-27.8728 18.5827 -27.8728 18.59 -27.8728 18.5974C-27.8728 18.6048 -27.8728 18.6122 -27.8728 18.6196C-27.8728 18.627 -27.8728 18.6344 -27.8728 18.6417C-27.8728 18.6491 -27.8728 18.6565 -27.8728 18.6639C-27.8728 18.6713 -27.8728 18.6787 -27.8728 18.6861C-27.8728 18.6934 -27.8728 18.7008 -27.8728 18.7082C-27.8728 18.7156 -27.8728 18.723 -27.8728 18.7304C-27.8728 18.7378 -27.8728 18.7451 -27.8728 18.7525C-27.8728 18.7599 -27.8728 18.7673 -27.8728 18.7747C-27.8728 18.7821 -27.8728 18.7895 -27.8728 18.7968C-27.8728 18.8042 -27.8728 18.8116 -27.8728 18.819C-27.8728 18.8264 -27.8728 18.8338 -27.8728 18.8412C-27.8728 18.8485 -27.8728 18.8559 -27.8728 18.8633C-27.8728 18.8707 -27.8728 18.8781 -27.8728 18.8855C-27.8728 18.8929 -27.8728 18.9002 -27.8728 18.9076C-27.8728 18.915 -27.8728 18.9224 -27.8728 18.9298C-27.8728 18.9372 -27.8728 18.9446 -27.8728 18.9519C-27.8728 18.9593 -27.8728 18.9667 -27.8728 18.9741C-27.8728 18.9815 -27.8728 18.9889 -27.8728 18.9963C-27.8728 19.0036 -27.8728 19.011 -27.8728 19.0184C-27.8728 19.0258 -27.8728 19.0332 -27.8728 19.0406C-27.8728 19.048 -27.8728 19.0553 -27.8728 19.0627C-27.8728 19.0701 -27.8728 19.0775 -27.8728 19.0849C-27.8728 19.0923 -27.8728 19.0997 -27.8728 19.1071C-27.8728 19.1144 -27.8728 19.1218 -27.8728 19.1292C-27.8728 19.1366 -27.8728 19.144 -27.8728 19.1514C-27.8728 19.1588 -27.8728 19.1661 -27.8728 19.1735C-27.8728 19.1809 -27.8728 19.1883 -27.8728 19.1957C-27.8728 19.2031 -27.8728 19.2105 -27.8728 19.2178C-27.8728 19.2252 -27.8728 19.2326 -27.8728 19.24C-27.8728 19.2474 -27.8728 19.2548 -27.8728 19.2622C-27.8728 19.2695 -27.8728 19.2769 -27.8728 19.2843C-27.8728 19.2917 -27.8728 19.2991 -27.8728 19.3065C-27.8728 19.3139 -27.8728 19.3212 -27.8728 19.3286C-27.8728 19.336 -27.8728 19.3434 -27.8728 19.3508C-27.8728 19.3582 -27.8728 19.3656 -27.8728 19.3729C-27.8728 19.3803 -27.8728 19.3877 -27.8728 19.3951C-27.8728 19.4025 -27.8728 19.4099 -27.8728 19.4173C-27.8728 19.4247 -27.8728 19.432 -27.8728 19.4394C-27.8728 19.4468 -27.8728 19.4542 -27.8728 19.4616C-27.8728 19.469 -27.8728 19.4764 -27.8728 19.4837C-27.8728 19.4911 -27.8728 19.4985 -27.8728 19.5059C-27.8728 19.5133 -27.8728 19.5207 -27.8728 19.5281C-27.8728 19.5354 -27.8728 19.5428 -27.8728 19.5502C-27.8728 19.5576 -27.8728 19.565 -27.8728 19.5724C-27.8728 19.5798 -27.8728 19.5871 -27.8728 19.5945C-27.8728 19.6019 -27.8728 19.6093 -27.8728 19.6167C-27.8728 19.6241 -27.8728 19.6315 -27.8728 19.6388C-27.8728 19.6462 -27.8728 19.6536 -27.8728 19.661C-27.8728 19.6684 -27.8728 19.6758 -27.8728 19.6832C-27.8728 19.6905 -27.8728 19.6979 -27.8728 19.7053C-27.8728 19.7127 -27.8728 19.7201 -27.8728 19.7275C-27.8728 19.7349 -27.8728 19.7423 -27.8728 19.7496C-27.8728 19.757 -27.8728 19.7644 -27.8728 19.7718C-27.8728 19.7792 -27.8728 19.7866 -27.8728 19.794C-27.8728 19.8013 -27.8728 19.8087 -27.8728 19.8161C-27.8728 19.8235 -27.8728 19.8309 -27.8728 19.8383C-27.8728 19.8457 -27.8728 19.853 -27.8728 19.8604C-27.8728 19.8678 -27.8728 19.8752 -27.8728 19.8826C-27.8728 19.89 -27.8728 19.8974 -27.8728 19.9047C-27.8728 19.9121 -27.8728 19.9195 -27.8728 19.9269C-27.8728 19.9343 -27.8728 19.9417 -27.8728 19.9491C-27.8728 19.9564 -27.8728 19.9638 -27.8728 19.9712C-27.8728 19.9786 -27.8728 19.986 -27.8728 19.9934C-27.8728 20.0008 -27.8728 20.0082 -27.8728 20.0155H72.1272C72.1272 20.0082 72.1272 20.0008 72.1272 19.9934C72.1272 19.986 72.1272 19.9786 72.1272 19.9712C72.1272 19.9638 72.1272 19.9564 72.1272 19.9491C72.1272 19.9417 72.1272 19.9343 72.1272 19.9269C72.1272 19.9195 72.1272 19.9121 72.1272 19.9047C72.1272 19.8974 72.1272 19.89 72.1272 19.8826C72.1272 19.8752 72.1272 19.8678 72.1272 19.8604C72.1272 19.853 72.1272 19.8457 72.1272 19.8383C72.1272 19.8309 72.1272 19.8235 72.1272 19.8161C72.1272 19.8087 72.1272 19.8013 72.1272 19.794C72.1272 19.7866 72.1272 19.7792 72.1272 19.7718C72.1272 19.7644 72.1272 19.757 72.1272 19.7496C72.1272 19.7423 72.1272 19.7349 72.1272 19.7275C72.1272 19.7201 72.1272 19.7127 72.1272 19.7053C72.1272 19.6979 72.1272 19.6905 72.1272 19.6832C72.1272 19.6758 72.1272 19.6684 72.1272 19.661C72.1272 19.6536 72.1272 19.6462 72.1272 19.6388C72.1272 19.6315 72.1272 19.6241 72.1272 19.6167C72.1272 19.6093 72.1272 19.6019 72.1272 19.5945C72.1272 19.5871 72.1272 19.5798 72.1272 19.5724C72.1272 19.565 72.1272 19.5576 72.1272 19.5502C72.1272 19.5428 72.1272 19.5354 72.1272 19.5281C72.1272 19.5207 72.1272 19.5133 72.1272 19.5059C72.1272 19.4985 72.1272 19.4911 72.1272 19.4837C72.1272 19.4764 72.1272 19.469 72.1272 19.4616C72.1272 19.4542 72.1272 19.4468 72.1272 19.4394C72.1272 19.432 72.1272 19.4247 72.1272 19.4173C72.1272 19.4099 72.1272 19.4025 72.1272 19.3951C72.1272 19.3877 72.1272 19.3803 72.1272 19.3729C72.1272 19.3656 72.1272 19.3582 72.1272 19.3508C72.1272 19.3434 72.1272 19.336 72.1272 19.3286C72.1272 19.3212 72.1272 19.3139 72.1272 19.3065C72.1272 19.2991 72.1272 19.2917 72.1272 19.2843C72.1272 19.2769 72.1272 19.2695 72.1272 19.2622C72.1272 19.2548 72.1272 19.2474 72.1272 19.24C72.1272 19.2326 72.1272 19.2252 72.1272 19.2178C72.1272 19.2105 72.1272 19.2031 72.1272 19.1957C72.1272 19.1883 72.1272 19.1809 72.1272 19.1735C72.1272 19.1661 72.1272 19.1588 72.1272 19.1514C72.1272 19.144 72.1272 19.1366 72.1272 19.1292C72.1272 19.1218 72.1272 19.1144 72.1272 19.1071C72.1272 19.0997 72.1272 19.0923 72.1272 19.0849C72.1272 19.0775 72.1272 19.0701 72.1272 19.0627C72.1272 19.0553 72.1272 19.048 72.1272 19.0406C72.1272 19.0332 72.1272 19.0258 72.1272 19.0184C72.1272 19.011 72.1272 19.0036 72.1272 18.9963C72.1272 18.9889 72.1272 18.9815 72.1272 18.9741C72.1272 18.9667 72.1272 18.9593 72.1272 18.9519C72.1272 18.9446 72.1272 18.9372 72.1272 18.9298C72.1272 18.9224 72.1272 18.915 72.1272 18.9076C72.1272 18.9002 72.1272 18.8929 72.1272 18.8855C72.1272 18.8781 72.1272 18.8707 72.1272 18.8633C72.1272 18.8559 72.1272 18.8485 72.1272 18.8412C72.1272 18.8338 72.1272 18.8264 72.1272 18.819C72.1272 18.8116 72.1272 18.8042 72.1272 18.7968C72.1272 18.7895 72.1272 18.7821 72.1272 18.7747C72.1272 18.7673 72.1272 18.7599 72.1272 18.7525C72.1272 18.7451 72.1272 18.7378 72.1272 18.7304C72.1272 18.723 72.1272 18.7156 72.1272 18.7082C72.1272 18.7008 72.1272 18.6934 72.1272 18.6861C72.1272 18.6787 72.1272 18.6713 72.1272 18.6639C72.1272 18.6565 72.1272 18.6491 72.1272 18.6417C72.1272 18.6344 72.1272 18.627 72.1272 18.6196C72.1272 18.6122 72.1272 18.6048 72.1272 18.5974C72.1272 18.59 72.1272 18.5827 72.1272 18.5753C72.1272 18.5679 72.1272 18.5605 72.1272 18.5531C72.1272 18.5457 72.1272 18.5383 72.1272 18.5309C72.1272 18.5236 72.1272 18.5162 72.1272 18.5088C72.1272 18.5014 72.1272 18.494 72.1272 18.4866C72.1272 18.4792 72.1272 18.4719 72.1272 18.4645C72.1272 18.4571 72.1272 18.4497 72.1272 18.4423C72.1272 18.4349 72.1272 18.4275 72.1272 18.4202C72.1272 18.4128 72.1272 18.4054 72.1272 18.398C72.1272 18.3906 72.1272 18.3832 72.1272 18.3758C72.1272 18.3685 72.1272 18.3611 72.1272 18.3537C72.1272 18.3463 72.1272 18.3389 72.1272 18.3315C72.1272 18.3241 72.1272 18.3168 72.1272 18.3094C72.1272 18.302 72.1272 18.2946 72.1272 18.2872C72.1272 18.2798 72.1272 18.2724 72.1272 18.2651C72.1272 18.2577 72.1272 18.2503 72.1272 18.2429C72.1272 18.2355 72.1272 18.2281 72.1272 18.2207C72.1272 18.2134 72.1272 18.206 72.1272 18.1986C72.1272 18.1912 72.1272 18.1838 72.1272 18.1764C72.1272 18.169 72.1272 18.1617 72.1272 18.1543C72.1272 18.1469 72.1272 18.1395 72.1272 18.1321C72.1272 18.1247 72.1272 18.1173 72.1272 18.11C72.1272 18.1026 72.1272 18.0952 72.1272 18.0878C72.1272 18.0804 72.1272 18.073 72.1272 18.0656C72.1272 18.0583 72.1272 18.0509 72.1272 18.0435C72.1272 18.0361 72.1272 18.0287 72.1272 18.0213C72.1272 18.0139 72.1272 18.0066 72.1272 17.9992C72.1272 17.9918 72.1272 17.9844 72.1272 17.977C72.1272 17.9696 72.1272 17.9622 72.1272 17.9549C72.1272 17.9475 72.1272 17.9401 72.1272 17.9327C72.1272 17.9253 72.1272 17.9179 72.1272 17.9105C72.1272 17.9032 72.1272 17.8958 72.1272 17.8884C72.1272 17.881 72.1272 17.8736 72.1272 17.8662C72.1272 17.8588 72.1272 17.8515 72.1272 17.8441C72.1272 17.8367 72.1272 17.8293 72.1272 17.8219C72.1272 17.8145 72.1272 17.8071 72.1272 17.7998C72.1272 17.7924 72.1272 17.785 72.1272 17.7776C72.1272 17.7702 72.1272 17.7628 72.1272 17.7554C72.1272 17.7481 72.1272 17.7407 72.1272 17.7333C72.1272 17.7259 72.1272 17.7185 72.1272 17.7111C72.1272 17.7037 72.1272 17.6964 72.1272 17.689C72.1272 17.6816 72.1272 17.6742 72.1272 17.6668C72.1272 17.6594 72.1272 17.652 72.1272 17.6447C72.1272 17.6373 72.1272 17.6299 72.1272 17.6225C72.1272 17.6151 72.1272 17.6077 72.1272 17.6003C72.1272 17.593 72.1272 17.5856 72.1272 17.5782C72.1272 17.5708 72.1272 17.5634 72.1272 17.556C72.1272 17.5486 72.1272 17.5413 72.1272 17.5339C72.1272 17.5265 72.1272 17.5191 72.1272 17.5117C72.1272 17.5043 72.1272 17.4969 72.1272 17.4896C72.1272 17.4822 72.1272 17.4748 72.1272 17.4674C72.1272 17.46 72.1272 17.4526 72.1272 17.4452C72.1272 17.4379 72.1272 17.4305 72.1272 17.4231C72.1272 17.4157 72.1272 17.4083 72.1272 17.4009C72.1272 17.3935 72.1272 17.3862 72.1272 17.3788C72.1272 17.3714 72.1272 17.364 72.1272 17.3566C72.1272 17.3492 72.1272 17.3418 72.1272 17.3345C72.1272 17.3271 72.1272 17.3197 72.1272 17.3123C72.1272 17.3049 72.1272 17.2975 72.1272 17.2901C72.1272 17.2828 72.1272 17.2754 72.1272 17.268C72.1272 17.2606 72.1272 17.2532 72.1272 17.2458C72.1272 17.2384 72.1272 17.2311 72.1272 17.2237C72.1272 17.2163 72.1272 17.2089 72.1272 17.2015C72.1272 17.1941 72.1272 17.1867 72.1272 17.1794C72.1272 17.172 72.1272 17.1646 72.1272 17.1572C72.1272 17.1498 72.1272 17.1424 72.1272 17.135C72.1272 17.1277 72.1272 17.1203 72.1272 17.1129C72.1272 17.1055 72.1272 17.0981 72.1272 17.0907C72.1272 17.0833 72.1272 17.076 72.1272 17.0686C72.1272 17.0612 72.1272 17.0538 72.1272 17.0464C72.1272 17.039 72.1272 17.0316 72.1272 17.0243C72.1272 17.0169 72.1272 17.0095 72.1272 17.0021C72.1272 16.9947 72.1272 16.9873 72.1272 16.9799C72.1272 16.9726 72.1272 16.9652 72.1272 16.9578C72.1272 16.9504 72.1272 16.943 72.1272 16.9356C72.1272 16.9282 72.1272 16.9209 72.1272 16.9135C72.1272 16.9061 72.1272 16.8987 72.1272 16.8913C72.1272 16.8839 72.1272 16.8765 72.1272 16.8692C72.1272 16.8618 72.1272 16.8544 72.1272 16.847C72.1272 16.8396 72.1272 16.8322 72.1272 16.8248C72.1272 16.8175 72.1272 16.8101 72.1272 16.8027C72.1272 16.7953 72.1272 16.7879 72.1272 16.7805C72.1272 16.7731 72.1272 16.7658 72.1272 16.7584C72.1272 16.751 72.1272 16.7436 72.1272 16.7362C72.1272 16.7288 72.1272 16.7214 72.1272 16.7141C72.1272 16.7067 72.1272 16.6993 72.1272 16.6919C72.1272 16.6845 72.1272 16.6771 72.1272 16.6697C72.1272 16.6624 72.1272 16.655 72.1272 16.6476C72.1272 16.6402 72.1272 16.6328 72.1272 16.6254C72.1272 16.618 72.1272 16.6107 72.1272 16.6033C72.1272 16.5959 72.1272 16.5885 72.1272 16.5811C72.1272 16.5737 72.1272 16.5664 72.1272 16.559C72.1272 16.5516 72.1272 16.5442 72.1272 16.5368C72.1272 16.5294 72.1272 16.522 72.1272 16.5147C72.1272 16.5073 72.1272 16.4999 72.1272 16.4925C72.1272 16.4851 72.1272 16.4777 72.1272 16.4703C72.1272 16.463 72.1272 16.4556 72.1272 16.4482C72.1272 16.4408 72.1272 16.4334 72.1272 16.426C72.1272 16.4186 72.1272 16.4113 72.1272 16.4039C72.1272 16.3965 72.1272 16.3891 72.1272 16.3817C72.1272 16.3743 72.1272 16.3669 72.1272 16.3596C72.1272 16.3522 72.1272 16.3448 72.1272 16.3374C72.1272 16.33 72.1272 16.3226 72.1272 16.3152C72.1272 16.3079 72.1272 16.3005 72.1272 16.2931C72.1272 16.2857 72.1272 16.2783 72.1272 16.2709C72.1272 16.2635 72.1272 16.2562 72.1272 16.2488C72.1272 16.2414 72.1272 16.234 72.1272 16.2266C72.1272 16.2192 72.1272 16.2118 72.1272 16.2045C72.1272 16.1971 72.1272 16.1897 72.1272 16.1823C72.1272 16.1749 72.1272 16.1675 72.1272 16.1601C72.1272 16.1528 72.1272 16.1454 72.1272 16.138C72.1272 16.1306 72.1272 16.1232 72.1272 16.1158C72.1272 16.1085 72.1272 16.1011 72.1272 16.0937C72.1272 16.0863 72.1272 16.0789 72.1272 16.0715C72.1272 16.0641 72.1272 16.0568 72.1272 16.0494C72.1272 16.042 72.1272 16.0346 72.1272 16.0272C72.1272 16.0198 72.1272 16.0124 72.1272 16.0051C72.1272 15.9977 72.1272 15.9903 72.1272 15.9829C72.1272 15.9755 72.1272 15.9681 72.1272 15.9607C72.1272 15.9534 72.1272 15.946 72.1272 15.9386C72.1272 15.9312 72.1272 15.9238 72.1272 15.9164C72.1272 15.909 72.1272 15.9017 72.1272 15.8943C72.1272 15.8869 72.1272 15.8795 72.1272 15.8721C72.1272 15.8647 72.1272 15.8573 72.1272 15.85C72.1272 15.8426 72.1272 15.8352 72.1272 15.8278C72.1272 15.8204 72.1272 15.813 72.1272 15.8056C72.1272 15.7983 72.1272 15.7909 72.1272 15.7835C72.1272 15.7761 72.1272 15.7687 72.1272 15.7613C72.1272 15.754 72.1272 15.7466 72.1272 15.7392C72.1272 15.7318 72.1272 15.7244 72.1272 15.717C72.1272 15.7096 72.1272 15.7023 72.1272 15.6949C72.1272 15.6875 72.1272 15.6801 72.1272 15.6727C72.1272 15.6653 72.1272 15.6579 72.1272 15.6506C72.1272 15.6432 72.1272 15.6358 72.1272 15.6284C72.1272 15.621 72.1272 15.6136 72.1272 15.6062C72.1272 15.5989 72.1272 15.5915 72.1272 15.5841C72.1272 15.5767 72.1272 15.5693 72.1272 15.5619C72.1272 15.5545 72.1272 15.5472 72.1272 15.5398C72.1272 15.5324 72.1272 15.525 72.1272 15.5176C72.1272 15.5102 72.1272 15.5028 72.1272 15.4955C72.1272 15.4881 72.1272 15.4807 72.1272 15.4733C72.1272 15.4659 72.1272 15.4585 72.1272 15.4512C72.1272 15.4438 72.1272 15.4364 72.1272 15.429C72.1272 15.4216 72.1272 15.4142 72.1272 15.4068C72.1272 15.3995 72.1272 15.3921 72.1272 15.3847C72.1272 15.3773 72.1272 15.3699 72.1272 15.3625C72.1272 15.3551 72.1272 15.3478 72.1272 15.3404C72.1272 15.333 72.1272 15.3256 72.1272 15.3182C72.1272 15.3108 72.1272 15.3034 72.1272 15.2961C72.1272 15.2887 72.1272 15.2813 72.1272 15.2739C72.1272 15.2665 72.1272 15.2591 72.1272 15.2517C72.1272 15.2444 72.1272 15.237 72.1272 15.2296C72.1272 15.2222 72.1272 15.2148 72.1272 15.2074C72.1272 15.2001 72.1272 15.1927 72.1272 15.1853C72.1272 15.1779 72.1272 15.1705 72.1272 15.1631C72.1272 15.1557 72.1272 15.1484 72.1272 15.141C72.1272 15.1336 72.1272 15.1262 72.1272 15.1188C72.1272 15.1114 72.1272 15.104 72.1272 15.0967C72.1272 15.0893 72.1272 15.0819 72.1272 15.0745C72.1272 15.0671 72.1272 15.0597 72.1272 15.0523C72.1272 15.045 72.1272 15.0376 72.1272 15.0302C72.1272 15.0228 72.1272 15.0154 72.1272 15.008C72.1272 15.0006 72.1272 14.9933 72.1272 14.9859C72.1272 14.9785 72.1272 14.9711 72.1272 14.9637C72.1272 14.9563 72.1272 14.949 72.1272 14.9416C72.1272 14.9342 72.1272 14.9268 72.1272 14.9194C72.1272 14.912 72.1272 14.9046 72.1272 14.8973C72.1272 14.8899 72.1272 14.8825 72.1272 14.8751C72.1272 14.8677 72.1272 14.8603 72.1272 14.8529C72.1272 14.8456 72.1272 14.8382 72.1272 14.8308C72.1272 14.8234 72.1272 14.816 72.1272 14.8086C72.1272 14.8012 72.1272 14.7939 72.1272 14.7865C72.1272 14.7791 72.1272 14.7717 72.1272 14.7643C72.1272 14.7569 72.1272 14.7495 72.1272 14.7422C72.1272 14.7348 72.1272 14.7274 72.1272 14.72C72.1272 14.7126 72.1272 14.7052 72.1272 14.6979C72.1272 14.6905 72.1272 14.6831 72.1272 14.6757C72.1272 14.6683 72.1272 14.6609 72.1272 14.6535C72.1272 14.6462 72.1272 14.6388 72.1272 14.6314C72.1272 14.624 72.1272 14.6166 72.1272 14.6092C72.1272 14.6018 72.1272 14.5945 72.1272 14.5871C72.1272 14.5797 72.1272 14.5723 72.1272 14.5649C72.1272 14.5575 72.1272 14.5501 72.1272 14.5428C72.1272 14.5354 72.1272 14.528 72.1272 14.5206C72.1272 14.5132 72.1272 14.5058 72.1272 14.4985C72.1272 14.4911 72.1272 14.4837 72.1272 14.4763C72.1272 14.4689 72.1272 14.4615 72.1272 14.4541C72.1272 14.4468 72.1272 14.4394 72.1272 14.432C72.1272 14.4246 72.1272 14.4172 72.1272 14.4098C72.1272 14.4024 72.1272 14.3951 72.1272 14.3877C72.1272 14.3803 72.1272 14.3729 72.1272 14.3655C72.1272 14.3581 72.1272 14.3507 72.1272 14.3434C72.1272 14.336 72.1272 14.3286 72.1272 14.3212C72.1272 14.3138 72.1272 14.3064 72.1272 14.2991C72.1272 14.2917 72.1272 14.2843 72.1272 14.2769C72.1272 14.2695 72.1272 14.2621 72.1272 14.2547C72.1272 14.2474 72.1272 14.24 72.1272 14.2326C72.1272 14.2252 72.1272 14.2178 72.1272 14.2104C72.1272 14.203 72.1272 14.1957 72.1272 14.1883C72.1272 14.1809 72.1272 14.1735 72.1272 14.1661C72.1272 14.1587 72.1272 14.1514 72.1272 14.144C72.1272 14.1366 72.1272 14.1292 72.1272 14.1218C72.1272 14.1144 72.1272 14.107 72.1272 14.0997C72.1272 14.0923 72.1272 14.0849 72.1272 14.0775C72.1272 14.0701 72.1272 14.0627 72.1272 14.0553C72.1272 14.048 72.1272 14.0406 72.1272 14.0332C72.1272 14.0258 72.1272 14.0184 72.1272 14.011C72.1272 14.0036 72.1272 13.9963 72.1272 13.9889C72.1272 13.9815 72.1272 13.9741 72.1272 13.9667C72.1272 13.9593 72.1272 13.952 72.1272 13.9446C72.1272 13.9372 72.1272 13.9298 72.1272 13.9224C72.1272 13.915 72.1272 13.9076 72.1272 13.9003C72.1272 13.8929 72.1272 13.8855 72.1272 13.8781C72.1272 13.8707 72.1272 13.8633 72.1272 13.8559C72.1272 13.8486 72.1272 13.8412 72.1272 13.8338C72.1272 13.8264 72.1272 13.819 72.1272 13.8116C72.1272 13.8043 72.1272 13.7969 72.1272 13.7895C72.1272 13.7821 72.1272 13.7747 72.1272 13.7673C72.1272 13.7599 72.1272 13.7526 72.1272 13.7452C72.1272 13.7378 72.1272 13.7304 72.1272 13.723C72.1272 13.7156 72.1272 13.7082 72.1272 13.7009C72.1272 13.6935 72.1272 13.6861 72.1272 13.6787C72.1272 13.6713 72.1272 13.6639 72.1272 13.6566C72.1272 13.6492 72.1272 13.6418 72.1272 13.6344C72.1272 13.627 72.1272 13.6196 72.1272 13.6122C72.1272 13.6049 72.1272 13.5975 72.1272 13.5901C72.1272 13.5827 72.1272 13.5753 72.1272 13.5679C72.1272 13.5605 72.1272 13.5532 72.1272 13.5458C72.1272 13.5384 72.1272 13.531 72.1272 13.5236C72.1272 13.5162 72.1272 13.5089 72.1272 13.5015C72.1272 13.4941 72.1272 13.4867 72.1272 13.4793C72.1272 13.4719 72.1272 13.4645 72.1272 13.4572C72.1272 13.4498 72.1272 13.4424 72.1272 13.435C72.1272 13.4276 72.1272 13.4202 72.1272 13.4128C72.1272 13.4055 72.1272 13.3981 72.1272 13.3907C72.1272 13.3833 72.1272 13.3759 72.1272 13.3685C72.1272 13.3612 72.1272 13.3538 72.1272 13.3464C72.1272 13.339 72.1272 13.3316 72.1272 13.3242C72.1272 13.3168 72.1272 13.3095 72.1272 13.3021C72.1272 13.2947 72.1272 13.2873 72.1272 13.2799C72.1272 13.2725 72.1272 13.2651 72.1272 13.2578C72.1272 13.2504 72.1272 13.243 72.1272 13.2356C72.1272 13.2282 72.1272 13.2208 72.1272 13.2135C72.1272 13.2061 72.1272 13.1987 72.1272 13.1913C72.1272 13.1839 72.1272 13.1765 72.1272 13.1691C72.1272 13.1618 72.1272 13.1544 72.1272 13.147C72.1272 13.1396 72.1272 13.1322 72.1272 13.1248C72.1272 13.1174 72.1272 13.1101 72.1272 13.1027C72.1272 13.0953 72.1272 13.0879 72.1272 13.0805C72.1272 13.0731 72.1272 13.0658 72.1272 13.0584C72.1272 13.051 72.1272 13.0436 72.1272 13.0362C72.1272 13.0288 72.1272 13.0214 72.1272 13.0141C72.1272 13.0067 72.1272 12.9993 72.1272 12.9919C72.1272 12.9845 72.1272 12.9771 72.1272 12.9698C72.1272 12.9624 72.1272 12.955 72.1272 12.9476C72.1272 12.9402 72.1272 12.9328 72.1272 12.9254C72.1272 12.9181 72.1272 12.9107 72.1272 12.9033C72.1272 12.8959 72.1272 12.8885 72.1272 12.8811C72.1272 12.8737 72.1272 12.8664 72.1272 12.859C72.1272 12.8516 72.1272 12.8442 72.1272 12.8368C72.1272 12.8294 72.1272 12.8221 72.1272 12.8147C72.1272 12.8073 72.1272 12.7999 72.1272 12.7925C72.1272 12.7851 72.1272 12.7777 72.1272 12.7704C72.1272 12.763 72.1272 12.7556 72.1272 12.7482C72.1272 12.7408 72.1272 12.7334 72.1272 12.7261C72.1272 12.7187 72.1272 12.7113 72.1272 12.7039C72.1272 12.6965 72.1272 12.6891 72.1272 12.6817C72.1272 12.6744 72.1272 12.667 72.1272 12.6596C72.1272 12.6522 72.1272 12.6448 72.1272 12.6374C72.1272 12.63 72.1272 12.6227 72.1272 12.6153C72.1272 12.6079 72.1272 12.6005 72.1272 12.5931C72.1272 12.5857 72.1272 12.5784 72.1272 12.571C72.1272 12.5636 72.1272 12.5562 72.1272 12.5488C72.1272 12.5414 72.1272 12.534 72.1272 12.5267C72.1272 12.5193 72.1272 12.5119 72.1272 12.5045C72.1272 12.4971 72.1272 12.4897 72.1272 12.4824C72.1272 12.475 72.1272 12.4676 72.1272 12.4602C72.1272 12.4528 72.1272 12.4454 72.1272 12.438C72.1272 12.4307 72.1272 12.4233 72.1272 12.4159C72.1272 12.4085 72.1272 12.4011 72.1272 12.3937C72.1272 12.3863 72.1272 12.379 72.1272 12.3716C72.1272 12.3642 72.1272 12.3568 72.1272 12.3494C72.1272 12.342 72.1272 12.3347 72.1272 12.3273C72.1272 12.3199 72.1272 12.3125 72.1272 12.3051C72.1272 12.2977 72.1272 12.2903 72.1272 12.283C72.1272 12.2756 72.1272 12.2682 72.1272 12.2608C72.1272 12.2534 72.1272 12.246 72.1272 12.2387C72.1272 12.2313 72.1272 12.2239 72.1272 12.2165C72.1272 12.2091 72.1272 12.2017 72.1272 12.1943C72.1272 12.187 72.1272 12.1796 72.1272 12.1722C72.1272 12.1648 72.1272 12.1574 72.1272 12.15C72.1272 12.1427 72.1272 12.1353 72.1272 12.1279C72.1272 12.1205 72.1272 12.1131 72.1272 12.1057C72.1272 12.0983 72.1272 12.091 72.1272 12.0836C72.1272 12.0762 72.1272 12.0688 72.1272 12.0614C72.1272 12.054 72.1272 12.0466 72.1272 12.0393C72.1272 12.0319 72.1272 12.0245 72.1272 12.0171C72.1272 12.0097 72.1272 12.0023 72.1272 11.995C72.1272 11.9876 72.1272 11.9802 72.1272 11.9728C72.1272 11.9654 72.1272 11.958 72.1272 11.9506C72.1272 11.9433 72.1272 11.9359 72.1272 11.9285C72.1272 11.9211 72.1272 11.9137 72.1272 11.9063C72.1272 11.899 72.1272 11.8916 72.1272 11.8842C72.1272 11.8768 72.1272 11.8694 72.1272 11.862C72.1272 11.8546 72.1272 11.8473 72.1272 11.8399C72.1272 11.8325 72.1272 11.8251 72.1272 11.8177C72.1272 11.8103 72.1272 11.803 72.1272 11.7956C72.1272 11.7882 72.1272 11.7808 72.1272 11.7734C72.1272 11.766 72.1272 11.7586 72.1272 11.7513C72.1272 11.7439 72.1272 11.7365 72.1272 11.7291C72.1272 11.7217 72.1272 11.7143 72.1272 11.707C72.1272 11.6996 72.1272 11.6922 72.1272 11.6848C72.1272 11.6774 72.1272 11.67 72.1272 11.6626C72.1272 11.6553 72.1272 11.6479 72.1272 11.6405C72.1272 11.6331 72.1272 11.6257 72.1272 11.6183C72.1272 11.611 72.1272 11.6036 72.1272 11.5962C72.1272 11.5888 72.1272 11.5814 72.1272 11.574C72.1272 11.5666 72.1272 11.5593 72.1272 11.5519C72.1272 11.5445 72.1272 11.5371 72.1272 11.5297C72.1272 11.5223 72.1272 11.515 72.1272 11.5076C72.1272 11.5002 72.1272 11.4928 72.1272 11.4854C72.1272 11.478 72.1272 11.4706 72.1272 11.4633C72.1272 11.4559 72.1272 11.4485 72.1272 11.4411C72.1272 11.4337 72.1272 11.4263 72.1272 11.419C72.1272 11.4116 72.1272 11.4042 72.1272 11.3968C72.1272 11.3894 72.1272 11.382 72.1272 11.3746C72.1272 11.3673 72.1272 11.3599 72.1272 11.3525C72.1272 11.3451 72.1272 11.3377 72.1272 11.3303C72.1272 11.323 72.1272 11.3156 72.1272 11.3082C72.1272 11.3008 72.1272 11.2934 72.1272 11.286C72.1272 11.2786 72.1272 11.2713 72.1272 11.2639C72.1272 11.2565 72.1272 11.2491 72.1272 11.2417C72.1272 11.2343 72.1272 11.227 72.1272 11.2196C72.1272 11.2122 72.1272 11.2048 72.1272 11.1974C72.1272 11.19 72.1272 11.1826 72.1272 11.1753C72.1272 11.1679 72.1272 11.1605 72.1272 11.1531C72.1272 11.1457 72.1272 11.1383 72.1272 11.131C72.1272 11.1236 72.1272 11.1162 72.1272 11.1088C72.1272 11.1014 72.1272 11.094 72.1272 11.0866C72.1272 11.0793 72.1272 11.0719 72.1272 11.0645C72.1272 11.0571 72.1272 11.0497 72.1272 11.0423C72.1272 11.035 72.1272 11.0276 72.1272 11.0202C72.1272 11.0128 72.1272 11.0054 72.1272 10.998C72.1272 10.9906 72.1272 10.9833 72.1272 10.9759C72.1272 10.9685 72.1272 10.9611 72.1272 10.9537C72.1272 10.9463 72.1272 10.939 72.1272 10.9316C72.1272 10.9242 72.1272 10.9168 72.1272 10.9094C72.1272 10.902 72.1272 10.8946 72.1272 10.8873C72.1272 10.8799 72.1272 10.8725 72.1272 10.8651C72.1272 10.8577 72.1272 10.8503 72.1272 10.843C72.1272 10.8356 72.1272 10.8282 72.1272 10.8208C72.1272 10.8134 72.1272 10.806 72.1272 10.7986C72.1272 10.7913 72.1272 10.7839 72.1272 10.7765C72.1272 10.7691 72.1272 10.7617 72.1272 10.7543C72.1272 10.747 72.1272 10.7396 72.1272 10.7322C72.1272 10.7248 72.1272 10.7174 72.1272 10.71C72.1272 10.7026 72.1272 10.6953 72.1272 10.6879C72.1272 10.6805 72.1272 10.6731 72.1272 10.6657C72.1272 10.6583 72.1272 10.651 72.1272 10.6436C72.1272 10.6362 72.1272 10.6288 72.1272 10.6214C72.1272 10.614 72.1272 10.6067 72.1272 10.5993C72.1272 10.5919 72.1272 10.5845 72.1272 10.5771C72.1272 10.5697 72.1272 10.5623 72.1272 10.555C72.1272 10.5476 72.1272 10.5402 72.1272 10.5328C72.1272 10.5254 72.1272 10.518 72.1272 10.5107C72.1272 10.5033 72.1272 10.4959 72.1272 10.4885C72.1272 10.4811 72.1272 10.4737 72.1272 10.4663C72.1272 10.459 72.1272 10.4516 72.1272 10.4442C72.1272 10.4368 72.1272 10.4294 72.1272 10.422C72.1272 10.4147 72.1272 10.4073 72.1272 10.3999C72.1272 10.3925 72.1272 10.3851 72.1272 10.3777C72.1272 10.3703 72.1272 10.363 72.1272 10.3556C72.1272 10.3482 72.1272 10.3408 72.1272 10.3334C72.1272 10.326 72.1272 10.3187 72.1272 10.3113C72.1272 10.3039 72.1272 10.2965 72.1272 10.2891C72.1272 10.2817 72.1272 10.2744 72.1272 10.267C72.1272 10.2596 72.1272 10.2522 72.1272 10.2448C72.1272 10.2374 72.1272 10.23 72.1272 10.2227C72.1272 10.2153 72.1272 10.2079 72.1272 10.2005C72.1272 10.1931 72.1272 10.1857 72.1272 10.1784C72.1272 10.171 72.1272 10.1636 72.1272 10.1562C72.1272 10.1488 72.1272 10.1414 72.1272 10.134C72.1272 10.1267 72.1272 10.1193 72.1272 10.1119C72.1272 10.1045 72.1272 10.0971 72.1272 10.0897C72.1272 10.0824 72.1272 10.075 72.1272 10.0676C72.1272 10.0602 72.1272 10.0528 72.1272 10.0454C72.1272 10.038 72.1272 10.0307 72.1272 10.0233C72.1272 10.0159 72.1272 10.0085 72.1272 10.0011C72.1272 9.99374 72.1272 9.98636 72.1272 9.97898C72.1272 9.97159 72.1272 9.96421 72.1272 9.95682C72.1272 9.94944 72.1272 9.94205 72.1272 9.93467C72.1272 9.92728 72.1272 9.9199 72.1272 9.91252C72.1272 9.90513 72.1272 9.89775 72.1272 9.89036C72.1272 9.88298 72.1272 9.87559 72.1272 9.86821C72.1272 9.86083 72.1272 9.85344 72.1272 9.84606C72.1272 9.83867 72.1272 9.83129 72.1272 9.8239C72.1272 9.81652 72.1272 9.80913 72.1272 9.80175C72.1272 9.79437 72.1272 9.78698 72.1272 9.7796C72.1272 9.77221 72.1272 9.76483 72.1272 9.75744C72.1272 9.75006 72.1272 9.74268 72.1272 9.73529C72.1272 9.72791 72.1272 9.72052 72.1272 9.71314C72.1272 9.70575 72.1272 9.69837 72.1272 9.69099C72.1272 9.6836 72.1272 9.67622 72.1272 9.66883C72.1272 9.66145 72.1272 9.65406 72.1272 9.64668C72.1272 9.6393 72.1272 9.63191 72.1272 9.62453C72.1272 9.61714 72.1272 9.60976 72.1272 9.60237C72.1272 9.59499 72.1272 9.58761 72.1272 9.58022C72.1272 9.57284 72.1272 9.56545 72.1272 9.55807C72.1272 9.55068 72.1272 9.5433 72.1272 9.53592C72.1272 9.52853 72.1272 9.52115 72.1272 9.51376C72.1272 9.50638 72.1272 9.49899 72.1272 9.49161C72.1272 9.48423 72.1272 9.47684 72.1272 9.46946C72.1272 9.46207 72.1272 9.45469 72.1272 9.4473C72.1272 9.43992 72.1272 9.43254 72.1272 9.42515C72.1272 9.41777 72.1272 9.41038 72.1272 9.403C72.1272 9.39561 72.1272 9.38823 72.1272 9.38085C72.1272 9.37346 72.1272 9.36608 72.1272 9.35869C72.1272 9.35131 72.1272 9.34392 72.1272 9.33654C72.1272 9.32916 72.1272 9.32177 72.1272 9.31439C72.1272 9.307 72.1272 9.29962 72.1272 9.29223C72.1272 9.28485 72.1272 9.27747 72.1272 9.27008C72.1272 9.2627 72.1272 9.25531 72.1272 9.24793C72.1272 9.24054 72.1272 9.23316 72.1272 9.22578C72.1272 9.21839 72.1272 9.21101 72.1272 9.20362C72.1272 9.19624 72.1272 9.18886 72.1272 9.18147C72.1272 9.17409 72.1272 9.1667 72.1272 9.15932C72.1272 9.15193 72.1272 9.14455 72.1272 9.13717C72.1272 9.12978 72.1272 9.1224 72.1272 9.11501C72.1272 9.10763 72.1272 9.10024 72.1272 9.09286C72.1272 9.08548 72.1272 9.07809 72.1272 9.07071C72.1272 9.06332 72.1272 9.05594 72.1272 9.04855C72.1272 9.04117 72.1272 9.03379 72.1272 9.0264C72.1272 9.01902 72.1272 9.01163 72.1272 9.00425C72.1272 8.99687 72.1272 8.98948 72.1272 8.9821C72.1272 8.97471 72.1272 8.96733 72.1272 8.95994C72.1272 8.95256 72.1272 8.94518 72.1272 8.93779C72.1272 8.93041 72.1272 8.92302 72.1272 8.91564C72.1272 8.90825 72.1272 8.90087 72.1272 8.89349C72.1272 8.8861 72.1272 8.87872 72.1272 8.87133C72.1272 8.86395 72.1272 8.85657 72.1272 8.84918C72.1272 8.8418 72.1272 8.83441 72.1272 8.82703C72.1272 8.81964 72.1272 8.81226 72.1272 8.80488C72.1272 8.79749 72.1272 8.79011 72.1272 8.78272C72.1272 8.77534 72.1272 8.76796 72.1272 8.76057C72.1272 8.75319 72.1272 8.7458 72.1272 8.73842C72.1272 8.73104 72.1272 8.72365 72.1272 8.71627C72.1272 8.70888 72.1272 8.7015 72.1272 8.69411C72.1272 8.68673 72.1272 8.67935 72.1272 8.67196H-27.8728ZM-27.8728 20.0155C-27.8728 10.4806 -23.9958 1.86947 -17.3539 -4.41714L51.3874 68.2095C64.2729 56.0134 72.1272 38.5379 72.1272 20.0155H-27.8728ZM-17.3605 -4.41092C-16.403 -5.31749 -15.6014 -5.95214 -15.103 -6.32439C-14.6181 -6.68653 -14.346 -6.85463 -14.4618 -6.78069C-14.5132 -6.74783 -14.6267 -6.67627 -14.8367 -6.54795C-15.0534 -6.41541 -15.3125 -6.25922 -15.6882 -6.034C-16.0043 -5.84452 -16.541 -5.52379 -17.0142 -5.23868C-17.5259 -4.93028 -18.1408 -4.55715 -18.8056 -4.14426L33.9539 80.8053C34.3328 80.57 34.7006 80.3511 35.7232 79.7382C36.5712 79.2299 37.9203 78.4197 39.3757 77.4899C42.2748 75.6377 46.7601 72.5909 51.394 68.2033L-17.3605 -4.41092ZM-18.8042 -4.14513L-24.8532 -0.38856L27.9035 84.5628L33.9525 80.8062L-18.8042 -4.14513ZM46.4319 64.0731L50.0387 56.7062L-39.7748 12.7342L-43.3816 20.1011L46.4319 64.0731ZM50.0424 56.6985L53.9354 48.7437L-35.8856 4.78702L-39.7786 12.7418L50.0424 56.6985ZM-40.9384 28.682L-40.7309 34.0899L59.1956 30.2566L58.9881 24.8487L-40.9384 28.682ZM35.6087 74.6501L36.8305 73.8914L-15.9223 -11.0624L-17.1441 -10.3037L35.6087 74.6501ZM36.8352 73.8885C46.8455 67.671 54.7188 59.0107 60.0216 49.1316L-28.0876 1.83715C-25.4288 -3.11627 -21.358 -7.68615 -15.9269 -11.0595L36.8352 73.8885ZM60.0216 49.1316C65.3159 39.2684 67.9843 28.3335 67.9854 17.3888L-32.0147 17.3791C-32.0141 12.1221 -30.7379 6.7747 -28.0876 1.83715L60.0216 49.1316ZM67.9854 17.3839V8.45805H-32.0147V17.3839H67.9854ZM62.8903 30.4478L67.0321 21.9898L-22.7777 -21.9898L-26.9196 -13.5317L62.8903 30.4478Z" fill="white" mask="url(#path-5-inside-3_9_186)"/>
</g>
<path opacity="0.5" d="M75.9442 18.672V7.8H79.9042V33H75.9442V22.344H64.2802V33H60.3202V7.8H64.2802V18.672H75.9442ZM89.5184 14.568C91.7864 13.704 93.9824 13.704 96.1784 14.568C98.4464 15.396 100.498 16.836 101.686 19.428C102.874 21.984 102.874 25.368 101.686 27.924C100.498 30.48 98.4464 31.92 96.1784 32.748C93.9824 33.576 91.7864 33.576 89.5184 32.748C87.3224 31.92 85.2344 30.48 84.0464 27.924C82.8584 25.368 82.8584 21.984 84.0464 19.428C85.2344 16.836 87.3224 15.396 89.5184 14.568ZM86.9264 23.676C86.9264 25.62 87.5384 27.132 88.7264 28.248C89.9504 29.364 91.3184 29.904 92.8664 29.904C94.4144 29.904 95.7824 29.364 96.9704 28.248C98.1944 27.132 98.8064 25.62 98.8064 23.676C98.8064 21.696 98.1944 20.184 96.9704 19.068C95.7824 17.952 94.4144 17.376 92.8664 17.376C91.3184 17.376 89.9504 17.952 88.7264 19.068C87.5384 20.184 86.9264 21.696 86.9264 23.676ZM111.104 14.568C113.372 13.704 115.568 13.704 117.764 14.568C120.032 15.396 122.084 16.836 123.272 19.428C124.46 21.984 124.46 25.368 123.272 27.924C122.084 30.48 120.032 31.92 117.764 32.748C115.568 33.576 113.372 33.576 111.104 32.748C108.908 31.92 106.82 30.48 105.632 27.924C104.444 25.368 104.444 21.984 105.632 19.428C106.82 16.836 108.908 15.396 111.104 14.568ZM108.512 23.676C108.512 25.62 109.124 27.132 110.312 28.248C111.536 29.364 112.904 29.904 114.452 29.904C116 29.904 117.368 29.364 118.556 28.248C119.78 27.132 120.392 25.62 120.392 23.676C120.392 21.696 119.78 20.184 118.556 19.068C117.368 17.952 116 17.376 114.452 17.376C112.904 17.376 111.536 17.952 110.312 19.068C109.124 20.184 108.512 21.696 108.512 23.676ZM145.11 33H140.574L133.23 25.008L131.106 27.204V33H127.218V7.548H131.106V22.452L138.738 14.28H143.418L135.642 22.452L145.11 33Z" fill="white"/>
<defs>
<clipPath id="clip0_9_186">
<rect width="48" height="44" fill="white"/>
</clipPath>
</defs>
</svg>
