<svg width="200" height="200" viewBox="0 0 200 200" fill="none" xmlns="http://www.w3.org/2000/svg">
<rect width="200" height="200" rx="100" fill="white"/>
<path d="M172.126 88.9952C169.406 93.7663 164.986 97.3354 159.749 98.9894C154.512 100.643 148.844 100.26 143.877 97.9171C142.727 97.3028 141.618 96.6151 140.556 95.8582L145.427 87.1245C137.953 83.0696 129.326 81.665 120.952 83.1395C118.731 82.4847 116.413 82.2188 114.1 82.3535C112.601 82.4359 111.115 82.6885 109.673 83.1063C109.938 82.5528 110.226 81.9993 110.525 81.468C113.9 80.4779 117.375 79.869 120.886 79.6526C124.949 79.3488 128.975 78.6594 132.907 77.5937C140.926 74.8744 147.583 69.1613 151.488 61.6484C155.393 54.1356 156.244 45.4042 153.862 37.2791L143.346 40.7216C144.795 46.0185 144.194 51.6673 141.662 56.5405C139.13 61.4137 134.854 65.1527 129.686 67.0114C128.442 67.3679 127.178 67.6488 125.9 67.8527L123.177 58.2445C115.023 60.6649 107.927 65.7714 103.042 72.7343C101.015 73.8558 99.1898 75.3073 97.6404 77.0292C96.6599 78.14 95.8026 79.3536 95.0833 80.6489C94.873 80.0733 94.6848 79.4866 94.5298 78.8999C96.2094 75.8108 98.2332 72.9218 100.563 70.2879C103.227 67.2006 105.588 63.8645 107.614 60.3255C111.362 52.7369 112.035 43.9941 109.492 35.9214C106.948 27.8488 101.386 21.0701 93.9653 17L88.962 26.8739C93.733 29.5938 97.3022 34.0139 98.9562 39.2508C100.61 44.4878 100.227 50.156 97.8839 55.1229C97.2696 56.2729 96.5819 57.3821 95.825 58.4437L87.0912 53.5732C83.0364 61.0469 81.6318 69.6735 83.1063 78.0476C82.4569 80.2703 82.1911 82.5875 82.3203 84.8995C82.4027 86.3992 82.6552 87.8846 83.0731 89.3272C82.5196 89.0616 81.9661 88.7738 81.4348 88.4749C80.4447 85.0999 79.8358 81.6246 79.6194 78.114C79.3146 74.0508 78.6252 70.0257 77.5605 66.0927C74.8365 58.0774 69.1227 51.4236 61.6113 47.5194C54.0999 43.6152 45.371 42.7622 37.2459 45.1383L40.6884 55.6542C45.9853 54.2045 51.6341 54.8056 56.5073 57.3376C61.3805 59.8696 65.1195 64.1462 66.9782 69.3138C67.3347 70.5576 67.6156 71.8218 67.8195 73.0995L58.2113 75.8226C60.6316 83.9767 65.7381 91.0727 72.7011 95.9578C73.8196 97.9865 75.2715 99.8126 76.996 101.36C78.1037 102.344 79.3178 103.202 80.6157 103.917C80.0511 104.127 79.5087 104.315 78.8778 104.47C75.785 102.791 72.8922 100.767 70.2547 98.4373C67.1674 95.7733 63.8312 93.4121 60.2923 91.3862C52.7072 87.6482 43.9723 86.9809 35.9075 89.5235C27.8426 92.0661 21.0698 97.6223 17 105.035L26.8739 110.038C29.5938 105.267 34.0139 101.698 39.2508 100.044C44.4878 98.3898 50.156 98.7728 55.1229 101.116C56.2729 101.73 57.3821 102.418 58.4437 103.175L53.5732 111.909C59.0734 114.928 65.2533 116.494 71.5277 116.458C73.7163 116.457 75.901 116.272 78.0586 115.905C79.8971 116.437 81.8011 116.709 83.7151 116.713H84.8995C86.3981 116.629 87.883 116.38 89.3272 115.971C89.0616 116.514 88.7738 117.078 88.4749 117.598C85.0999 118.589 81.6246 119.197 78.114 119.414C74.0507 119.718 70.0255 120.407 66.0927 121.473C58.0774 124.197 51.4236 129.91 47.5194 137.422C43.6152 144.933 42.7622 153.662 45.1383 161.787L55.6542 158.345C54.2023 153.049 54.8025 147.401 57.335 142.529C59.8675 137.657 64.1455 133.92 69.3138 132.066C70.5561 131.701 71.8206 131.416 73.0995 131.214L75.8226 140.822C83.9806 138.403 91.0783 133.292 95.9578 126.321C97.9905 125.213 99.8176 123.764 101.36 122.037C102.338 120.924 103.195 119.711 103.917 118.418C104.127 118.993 104.315 119.58 104.481 120.167C102.794 123.253 100.766 126.142 98.4373 128.778C95.7733 131.866 93.4121 135.202 91.3862 138.741C87.6582 146.323 86.9965 155.049 89.5385 163.107C92.0806 171.164 97.6308 177.931 105.035 182L110.038 172.126C105.267 169.406 101.698 164.986 100.044 159.749C98.3898 154.512 98.7728 148.844 101.116 143.877C101.73 142.727 102.418 141.618 103.175 140.556L111.909 145.427C115.964 137.953 117.368 129.326 115.894 120.952C116.956 117.286 116.956 113.394 115.894 109.728C116.436 109.983 117.001 110.27 117.521 110.569C118.511 113.944 119.12 117.42 119.336 120.93C119.64 124.994 120.33 129.019 121.395 132.952C122.696 136.949 124.776 140.649 127.516 143.838C130.256 147.026 133.601 149.639 137.357 151.526C142.066 154.016 147.306 155.334 152.633 155.367C155.722 155.375 158.793 154.893 161.732 153.939L158.289 143.423C152.994 144.875 147.346 144.275 142.474 141.743C137.602 139.21 133.865 134.932 132.011 129.764C131.645 128.521 131.361 127.257 131.158 125.978L140.767 123.255C138.346 115.101 133.24 108.005 126.277 103.12C125.155 101.093 123.704 99.2673 121.982 97.7178C120.871 96.7374 119.657 95.8801 118.362 95.1608C118.938 94.9505 119.524 94.7623 120.111 94.5963C123.198 96.2839 126.087 98.3111 128.723 100.64C131.81 103.304 135.147 105.665 138.686 107.691C146.282 111.43 155.03 112.089 163.101 109.531C171.172 106.974 177.943 101.397 182 93.9653L172.126 88.9952Z" fill="#5076F3"/>
</svg>
