<svg width="150" height="150" viewBox="0 0 150 150" fill="none" xmlns="http://www.w3.org/2000/svg">
<path d="M140.14 65.04C137.683 69.3502 133.69 72.5745 128.959 74.0687C124.228 75.5629 119.107 75.217 114.62 73.1C113.581 72.5451 112.579 71.9238 111.62 71.24L116.02 63.35C109.268 59.6869 101.475 58.4179 93.91 59.75C91.903 59.1585 89.8088 58.9183 87.72 59.04C86.3652 59.1144 85.0233 59.3425 83.72 59.72C83.96 59.22 84.22 58.72 84.49 58.24C87.539 57.3456 90.6786 56.7955 93.85 56.6C97.5208 56.3255 101.157 55.7027 104.71 54.74C111.954 52.2833 117.968 47.1222 121.496 40.3351C125.024 33.5481 125.792 25.6602 123.64 18.32L114.14 21.43C115.45 26.2152 114.907 31.3183 112.619 35.7206C110.332 40.123 106.468 43.5009 101.8 45.18C100.676 45.502 99.5343 45.7558 98.38 45.94L95.92 37.26C88.5537 39.4466 82.1432 44.0597 77.73 50.35C75.8991 51.3632 74.2498 52.6745 72.85 54.23C71.9643 55.2335 71.1898 56.3299 70.54 57.5C70.35 56.98 70.18 56.45 70.04 55.92C71.5573 53.1293 73.3856 50.5194 75.49 48.14C77.8966 45.3509 80.0298 42.3371 81.86 39.14C85.246 32.2845 85.8537 24.3863 83.5563 17.0935C81.2589 9.80074 76.2339 3.67691 69.53 0L65.01 8.92C69.3202 11.3772 72.5445 15.3702 74.0387 20.1013C75.5329 24.8323 75.187 29.9529 73.07 34.44C72.5151 35.4789 71.8938 36.481 71.21 37.44L63.32 33.04C59.6568 39.7917 58.3879 47.5849 59.72 55.15C59.1334 57.158 58.8933 59.2513 59.01 61.34C59.0844 62.6948 59.3126 64.0367 59.69 65.34C59.19 65.1 58.69 64.84 58.21 64.57C57.3156 61.521 56.7655 58.3814 56.57 55.21C56.2946 51.5393 55.6719 47.9031 54.71 44.35C52.2491 37.1091 47.0873 31.0981 40.3016 27.571C33.5158 24.044 25.6302 23.2734 18.29 25.42L21.4 34.92C26.1852 33.6103 31.2883 34.1534 35.6906 36.4408C40.093 38.7281 43.4709 42.5916 45.15 47.26C45.472 48.3836 45.7258 49.5257 45.91 50.68L37.23 53.14C39.4166 60.5063 44.0297 66.9168 50.32 71.33C51.3305 73.1627 52.6421 74.8124 54.2 76.21C55.2007 77.0992 56.2975 77.874 57.47 78.52C56.96 78.71 56.47 78.88 55.9 79.02C53.106 77.5031 50.4927 75.6748 48.11 73.57C45.3209 71.1634 42.3071 69.0302 39.11 67.2C32.2577 63.8231 24.3666 63.2204 17.0809 65.5173C9.79515 67.8142 3.67662 72.8337 0 79.53L8.92 84.05C11.3772 79.7398 15.3702 76.5155 20.1013 75.0213C24.8323 73.5271 29.9529 73.873 34.44 75.99C35.4789 76.5449 36.481 77.1662 37.44 77.85L33.04 85.74C38.0089 88.4678 43.5917 89.8824 49.26 89.85C51.2372 89.8487 53.2108 89.6815 55.16 89.35C56.8209 89.8309 58.5409 90.0766 60.27 90.08H61.34C62.6938 90.0038 64.0352 89.7792 65.34 89.41C65.1 89.9 64.84 90.41 64.57 90.88C61.521 91.7744 58.3814 92.3245 55.21 92.52C51.5392 92.7945 47.9029 93.4173 44.35 94.38C37.1091 96.8409 31.0981 102.003 27.571 108.788C24.044 115.574 23.2734 123.46 25.42 130.8L34.92 127.69C33.6083 122.906 34.1506 117.803 36.4384 113.402C38.7262 109.001 42.5909 105.625 47.26 103.95C48.3822 103.62 49.5246 103.363 50.68 103.18L53.14 111.86C60.5099 109.675 66.9219 105.057 71.33 98.76C73.1663 97.759 74.817 96.4499 76.21 94.89C77.0935 93.8848 77.8678 92.7886 78.52 91.62C78.71 92.14 78.88 92.67 79.03 93.2C77.5054 95.9886 75.674 98.5981 73.57 100.98C71.1634 103.769 69.0302 106.783 67.2 109.98C63.8322 116.829 63.2344 124.713 65.5309 131.992C67.8273 139.27 72.8414 145.384 79.53 149.06L84.05 140.14C79.7398 137.683 76.5155 133.69 75.0213 128.959C73.5271 124.228 73.873 119.107 75.99 114.62C76.5449 113.581 77.1662 112.579 77.85 111.62L85.74 116.02C89.4031 109.268 90.672 101.475 89.34 93.91C90.3 90.5982 90.3 87.0818 89.34 83.77C89.83 84 90.34 84.26 90.81 84.53C91.7044 87.579 92.2545 90.7185 92.45 93.89C92.7245 97.5607 93.3473 101.197 94.31 104.75C95.4848 108.361 97.3641 111.704 99.8393 114.584C102.315 117.465 105.336 119.825 108.73 121.53C112.984 123.78 117.718 124.97 122.53 125C125.321 125.007 128.095 124.571 130.75 123.71L127.64 114.21C122.856 115.522 117.753 114.979 113.352 112.692C108.951 110.404 105.575 106.539 103.9 101.87C103.57 100.748 103.313 99.6054 103.13 98.45L111.81 95.99C109.623 88.6237 105.01 82.2132 98.72 77.8C97.7068 75.969 96.3955 74.3198 94.84 72.92C93.8365 72.0343 92.7402 71.2598 91.57 70.61C92.09 70.42 92.62 70.25 93.15 70.1C95.9386 71.6246 98.5481 73.4559 100.93 75.56C103.719 77.9666 106.733 80.0998 109.93 81.93C116.793 85.3074 124.695 85.903 131.987 83.5924C139.278 81.2818 145.395 76.2436 149.06 69.53L140.14 65.04Z" fill="#5076F3"/>
</svg>
